<?xml version="1.0" encoding="UTF-8" standalone="no"?>
<!-- Created with Inkscape (http://www.inkscape.org/) -->

<svg
   width="65"
   height="65"
   viewBox="0 0 17.197917 17.197917"
   version="1.1"
   id="svg5"
   xmlns:xlink="http://www.w3.org/1999/xlink"
   xmlns="http://www.w3.org/2000/svg"
   xmlns:svg="http://www.w3.org/2000/svg">
  <defs
     id="defs2">
    <color-profile
       name="sRGB"
       xlink:href="file:///usr/share/color/icc/colord/sRGB.icc"
       id="color-profile4273" />
    <clipPath
       clipPathUnits="userSpaceOnUse"
       id="clipPath135354">
      <path
         id="path135356"
         style="opacity:1;vector-effect:none;fill:#ffffff;stroke-width:0.121859;stop-color:#000000;stop-opacity:1"
         d="m 385.74177,111.17147 h 41.19862 c 4.12591,0 7.44746,3.32157 7.44746,7.44746 v 41.19862 c 0,4.12589 -3.32155,7.44746 -7.44746,7.44746 h -41.19862 c -4.12588,0 -7.44746,-3.32157 -7.44746,-7.44746 v -41.19862 c 0,-4.12589 3.32158,-7.44746 7.44746,-7.44746 z" />
    </clipPath>
    <clipPath
       clipPathUnits="userSpaceOnUse"
       id="clipPath135712">
      <path
         id="path135714"
         style="opacity:1;vector-effect:none;fill:#ffffff;stroke-width:3.7007;stop-color:#000000;stop-opacity:1"
         d="m 286.07285,94.083963 h 56.09354 v 56.093547 h -56.09354 z" />
    </clipPath>
  </defs>
  <g
     id="layer1"
     transform="translate(-15.702216,1.4081386)"
     style="display:inline">
    <g
       id="g164764"
       transform="matrix(0.26765727,-0.0015993,0.0015993,0.26765727,-54.949433,-65.532764)">
      <g
         id="g2170"
         transform="matrix(2.5600289,0.01529663,-0.01529663,2.5600289,46.969605,57.14425)">
        <path
           id="rect2067"
           style="fill:#ffffff;stroke-width:5.52503;stroke-linejoin:round;stop-color:#000000"
           d="M 90.684029,77.030319 H 103.74449 V 90.676082 H 90.684029 Z" />
        <path
           d="m 90.01998,74.168661 c -1.396648,0 -2.4301,1.222438 -2.383824,2.548138 0.04441,1.273639 -0.01328,2.923189 -0.428547,4.268396 -0.41674,1.348984 -1.121034,2.203829 -2.271666,2.313548 v 1.238787 c 1.150632,0.109954 1.854926,0.964373 2.271622,2.313549 0.4153,1.345207 0.472957,2.994755 0.428547,4.268394 -0.04627,1.32551 0.987175,2.548139 2.384062,2.548139 H 104.3312 c 1.39665,0 2.42992,-1.222437 2.38363,-2.548139 -0.0444,-1.273639 0.0133,-2.923187 0.42855,-4.268394 0.41674,-1.349176 1.11931,-2.203925 2.27,-2.313549 v -1.238787 c -1.15063,-0.109953 -1.85322,-0.964373 -2.27,-2.313548 -0.41531,-1.345015 -0.47296,-2.994757 -0.42855,-4.268396 0.0463,-1.325509 -0.98698,-2.548138 -2.38363,-2.548138 H 90.019794 Z m 11.51085,12.002882 c 0,1.825432 -1.3616,2.93251 -3.621226,2.93251 H 94.063109 A 0.41487333,0.41487333 0 0 1 93.648235,88.68918 v -9.54204 a 0.41487333,0.41487333 0 0 1 0.414874,-0.414872 h 3.824599 c 1.884142,0 3.120682,1.020594 3.120682,2.587531 0,1.099812 -0.83185,2.084406 -1.891603,2.256896 v 0.05737 c 1.442643,0.158244 2.414043,1.157421 2.414043,2.53748 z m -4.040638,-6.124139 h -2.193219 v 3.097924 h 1.847232 c 1.428006,0 2.215398,-0.575029 2.215398,-1.602842 -1.43e-4,-0.963224 -0.6771,-1.495082 -1.869411,-1.495082 z m -2.193219,4.327103 v 3.41398 h 2.273913 c 1.486812,0 2.274346,-0.59659 2.274346,-1.71777 0,-1.121182 -0.809623,-1.696402 -2.369958,-1.696402 h -2.178301 z"
           fill="#7952b3"
           fill-rule="evenodd"
           id="path1816"
           style="stroke-width:0.0478075" />
      </g>
    </g>
  </g>
  <g
     id="layer2" />
</svg>
