<?xml version="1.0" encoding="UTF-8" standalone="no"?>
<!-- Created with Inkscape (http://www.inkscape.org/) -->

<svg
   width="300"
   height="300"
   viewBox="0 0 79.375 79.375"
   version="1.1"
   id="svg5"
   xmlns:xlink="http://www.w3.org/1999/xlink"
   xmlns="http://www.w3.org/2000/svg"
   xmlns:svg="http://www.w3.org/2000/svg">
  <defs
     id="defs2">
    <color-profile
       name="sRGB"
       xlink:href="file:///usr/share/color/icc/colord/sRGB.icc"
       id="color-profile1381" />
    <clipPath
       clipPathUnits="userSpaceOnUse"
       id="clipPath135712">
      <path
         id="path135714"
         style="opacity:1;vector-effect:none;fill:#ffffff;stroke-width:3.7007;stop-color:#000000;stop-opacity:1"
         d="m 286.07285,94.083963 h 56.09354 v 56.093547 h -56.09354 z" />
    </clipPath>
    <clipPath
       clipPathUnits="userSpaceOnUse"
       id="clipPath135354">
      <path
         id="path135356"
         style="opacity:1;vector-effect:none;fill:#ffffff;stroke-width:0.121859;stop-color:#000000;stop-opacity:1"
         d="m 385.74177,111.17147 h 41.19862 c 4.12591,0 7.44746,3.32157 7.44746,7.44746 v 41.19862 c 0,4.12589 -3.32155,7.44746 -7.44746,7.44746 h -41.19862 c -4.12588,0 -7.44746,-3.32157 -7.44746,-7.44746 v -41.19862 c 0,-4.12589 3.32158,-7.44746 7.44746,-7.44746 z" />
    </clipPath>
  </defs>
  <g
     id="layer1"
     transform="translate(-15.702216,1.4081386)"
     style="display:inline">
    <g
       id="g164938"
       transform="matrix(0.35933666,0,0,0.35933666,-43.830213,-59.931454)">
      <g
         id="g80475"
         transform="matrix(1.5007564,0,0,1.5007564,-72.579577,125.08466)">
        <path
           id="path71255"
           style="fill:#f2cf8b;fill-opacity:1;stroke:none;stroke-width:0.264583px;stroke-linecap:butt;stroke-linejoin:miter;stroke-opacity:1"
           d="M 288.02584,74.513796 306.19301,89.700297 249.22202,56.808087 231.675,41.263526" />
        <path
           id="path8404"
           style="fill:#d3b775;fill-opacity:1;stroke-width:3.96875;stroke-linecap:round;stroke-dashoffset:7.1811;stop-color:#000000"
           d="m 231.05485,41.621575 56.97099,32.892221 V 131.48479 L 231.05485,98.592566 Z" />
      </g>
      <g
         id="g149831"
         transform="rotate(8.5508568,-577.29443,545.04103)">
        <path
           id="rect149692"
           style="opacity:1;vector-effect:none;fill:#ffffff;stroke-width:3.60548;stop-color:#000000;stop-opacity:1"
           d="m 211.71094,52.053204 h 56.0935 l -9.98952,46.73876 -31.6123,3.543246 z" />
        <path
           fill="currentColor"
           d="m 211.71092,52.053203 5.09808,49.557647 22.94869,6.5359 22.94869,-6.5359 5.09808,-49.557646 z m 45.73669,10.01671 -0.70117,5.922382 -16.84267,6.17279 -0.0438,0.0125 h 16.28758 l -1.86979,18.35561 -14.34475,3.59349 -14.4324,-3.6561 -0.9349,-9.252929 h 7.14316 l 0.46745,4.7955 7.68365,1.66528 7.99041,-1.92822 0.54048,-7.71286 -24.29259,-0.0626 v -0.0125 l -0.0292,0.0125 -0.52588,-5.797169 16.37523,-5.84725 0.9495,-0.33807 h -17.95286 l -0.84724,-5.922372 z"
           id="path80997"
           style="fill:#1572b6;fill-opacity:1;stroke-width:0.135241" />
      </g>
      <path
         id="path66105"
         style="fill:#f2cf8b;fill-opacity:1;stroke:none;stroke-width:0.397075px;stroke-linecap:butt;stroke-linejoin:miter;stroke-opacity:1"
         d="m 189.61931,237.45568 -0.94153,-0.54359 -23.37993,24.41079 v 0 l 85.49958,-49.36322 23.37992,-24.41078 0.0105,0.006" />
      <path
         id="path8439"
         style="fill:#b68c58;fill-opacity:1;stroke:none;stroke-width:0.397075px;stroke-linecap:butt;stroke-linejoin:miter;stroke-opacity:1"
         d="m 274.17764,187.54893 -85.49989,49.36295 v 85.4999 l 85.49989,49.36293 85.49913,-49.36293 v -85.4999 l -74.04446,42.74995 -11.45467,-6.61301 z" />
      <g
         id="g150300"
         transform="rotate(-9.6215436,1013.6208,-173.77006)">
        <path
           id="rect150193"
           style="opacity:1;vector-effect:none;fill:#ffffff;stroke-width:2.80691;stop-color:#000000;stop-opacity:1"
           d="M 180.67622,54.778313 H 224.6107 V 95.616669 H 180.67622 Z" />
        <path
           fill="currentColor"
           d="m 175.49675,47.733224 5.09812,49.557641 22.87568,6.535905 23.02177,-6.535905 5.09812,-49.557641 z m 45.02104,16.014201 h -26.849 l 0.59892,6.18532 h 25.65115 l -1.98663,18.58099 -14.30102,3.38063 v 0.0376 h -0.16066 l -14.41784,-3.4182 -0.87647,-9.49083 h 6.96793 l 0.51125,4.77046 7.81513,1.81552 7.84434,-1.81552 0.87646,-7.78799 h -24.38027 l -1.86981,-18.230431 h 35.21922 z"
           id="path81006"
           style="fill:#e34c26;fill-opacity:1;stroke-width:0.135241" />
      </g>
      <g
         id="g141984"
         transform="matrix(0.69674661,0,0,0.69674697,37.42169,95.687874)">
        <path
           style="font-variation-settings:normal;opacity:1;vector-effect:none;fill:#ff00ff;fill-opacity:1;stroke:none;stroke-width:10.6088;stroke-linecap:butt;stroke-linejoin:miter;stroke-miterlimit:4;stroke-dasharray:none;stroke-dashoffset:0;stroke-opacity:1;-inkscape-stroke:none;stop-color:#000000;stop-opacity:1"
           id="path136171"
           d="m 450.18696,174.4348 a 40.253887,40.253887 0 0 1 -40.17766,40.25381 40.253887,40.253887 0 0 1 -40.32982,-40.10136 40.253887,40.253887 0 0 1 40.02491,-40.40569 40.253887,40.253887 0 0 1 40.48142,39.94833" />
        <path
           fill="currentColor"
           d="m 411.75709,183.30154 c -0.0262,0.0701 -0.0526,0.1262 0,0 z m 21.83551,-10.16612 a 11.495775,15.326312 0 0 0 -5.08354,1.5775 c -0.51711,-1.39054 -1.05177,-2.6058 -1.13942,-3.51725 -0.10518,-1.06335 -0.2191,-1.69435 -0.0964,-2.95635 0.1227,-1.26201 0.67489,-3.04984 0.66611,-3.17838 -0.009,-0.12854 -0.1227,-0.77122 -1.25334,-0.78291 -1.13064,-0.0117 -2.10353,0.29213 -2.21659,0.68943 a 10.765676,14.352935 0 0 0 -0.46453,2.23187 c -0.20157,1.36717 -2.26041,6.25158 -3.42613,8.79896 -0.38562,-0.99324 -0.70993,-1.86963 -0.78006,-2.57074 -0.10518,-1.06336 -0.2191,-1.69436 -0.0964,-2.95636 0.1227,-1.262 0.67489,-3.04984 0.66611,-3.17838 -0.009,-0.12853 -0.1227,-0.77122 -1.25248,-0.78291 -1.12974,-0.0117 -2.10353,0.29213 -2.21745,0.68943 -0.11395,0.3973 -0.23665,1.33212 -0.46453,2.23188 -0.22788,0.89976 -2.97035,9.03266 -3.6882,11.14768 -0.3681,1.07504 -0.68363,1.93974 -0.9115,2.524 -0.0351,0.0935 -0.0614,0.15191 -0.0789,0.19865 0.0262,-0.0584 0.0438,-0.11685 0.0438,-0.0935 -0.19283,0.50246 -0.30675,0.78291 -0.30675,0.78291 v 0.0117 c -0.14901,0.37393 -0.31553,0.7128 -0.39441,0.7128 -0.0526,0 -0.16656,-0.98156 0.0262,-2.32536 0.41196,-2.82782 1.38482,-7.22145 1.37607,-7.37336 -0.009,-0.0818 0.18405,-0.84133 -0.63983,-1.25032 -0.79759,-0.38561 -1.08681,0.25708 -1.15694,0.25708 -0.0701,0 -0.1227,0.2337 -0.1227,0.2337 0,0 0.88523,-4.95452 -1.69949,-4.95452 -1.61269,0 -3.85644,2.36041 -4.95905,4.4988 -0.69241,0.50244 -2.19118,1.58917 -3.76883,2.746 -0.60475,0.44404 -1.22703,0.89976 -1.81426,1.33212 -0.0438,-0.0584 -0.0789,-0.11685 -0.12274,-0.17528 -3.13687,-4.46375 -8.92859,-7.61875 -8.68316,-13.61326 0.0877,-2.18514 0.65733,-7.92257 11.1373,-14.88695 8.58938,-5.70238 15.45652,-4.13656 16.6389,-0.65437 1.70034,4.96621 -3.67154,14.20921 -12.59139,15.54132 -3.39982,0.50246 -5.18693,-1.25032 -5.63394,-1.90469 -0.46453,-0.68943 -0.53462,-0.72448 -0.70993,-0.59594 -0.28922,0.21033 -0.10517,0.81796 0,1.1802 0.26293,0.92313 1.35852,2.55906 3.22453,3.37703 1.63899,0.71279 5.62519,1.11009 10.44489,-1.37886 5.41484,-2.78108 9.62978,-10.52837 8.39397,-17.01366 -1.25864,-6.59045 -9.45538,-8.75221 -17.206,-5.08306 -4.61812,2.18513 -9.61225,5.62058 -13.20488,10.09601 -4.26754,5.32846 -4.95031,9.96748 -4.66983,11.90723 0.9983,6.88258 8.11349,11.3697 10.96113,14.6883 -0.14025,0.10517 -0.2717,0.19865 -0.39443,0.29213 -1.42775,0.9465 -6.85223,4.7325 -8.20989,8.72884 -1.53382,4.53387 0.25418,7.78235 1.42779,8.22639 3.66275,1.35548 7.41316,-1.08673 9.42817,-5.09475 2.01501,-4.00802 1.77047,-9.24299 0.84141,-11.62678 -0.009,-0.0351 -0.0262,-0.0584 -0.035,-0.0935 0.3681,-0.29213 0.74498,-0.58426 1.12186,-0.87639 0.72659,-0.57257 1.43656,-1.09841 2.05884,-1.55413 -0.35058,1.262 -0.60476,2.78108 -0.73624,4.9779 -0.15774,2.57074 0.63984,5.90102 1.67408,7.20977 0.45575,0.57257 1.00704,0.58425 1.34887,0.58425 1.20951,0 1.75295,-1.33211 2.35681,-2.9213 0.74502,-1.93974 1.40238,-4.19498 1.40238,-4.19498 0,0 -0.82389,6.09967 1.42864,6.09967 0.82299,0 1.64688,-1.41391 2.01588,-2.13839 v 0.0117 c 0,0 0.0176,-0.0467 0.0614,-0.14022 0.0876,-0.17528 0.13147,-0.28044 0.13147,-0.28044 v -0.0351 c 0.33306,-0.75954 1.06051,-2.50064 2.15524,-5.3752 1.41987,-3.71589 2.77752,-8.35491 2.77752,-8.35491 a 17.638074,23.515302 0 0 0 0.54341,3.01478 c 0.24543,1.11009 0.76253,2.32535 1.1745,3.50556 -0.33309,0.60763 -0.53467,0.95818 -0.53467,0.95818 a 0.02717056,0.03622413 0 0 0 0.009,0.0234 c -0.26296,0.4674 -0.56096,0.96987 -0.86771,1.46065 -1.121,1.77614 -2.45411,3.80937 -2.62942,4.39363 -0.21035,0.68943 -0.15778,1.20358 0.2454,1.60087 0.29801,0.30382 0.82389,0.35056 1.37518,0.29213 1.00794,-0.0935 1.71791,-0.42066 2.0597,-0.631 a 7.2045798,9.6052369 0 0 0 1.76962,-1.23863 c 1.09559,-1.07504 1.76169,-2.61748 1.70034,-4.65071 -0.035,-1.12178 -0.30678,-2.24356 -0.63983,-3.29523 0.0964,-0.18696 0.2016,-0.38561 0.298,-0.58425 1.73453,-3.37703 3.07552,-7.08357 3.07552,-7.08357 a 17.638074,23.515302 0 0 0 0.54344,3.01478 c 0.21036,0.9465 0.62142,1.98648 0.9983,3.0031 -1.62936,1.76446 -2.63729,3.80937 -2.9879,5.15317 -0.64858,2.48894 -0.14023,3.61072 0.81511,3.8678 0.42948,0.11685 1.04301,-0.15191 1.49877,-0.40898 a 6.9644273,9.2850624 0 0 0 1.89231,-1.29706 c 1.09559,-1.07504 2.15524,-2.58243 2.08511,-4.62734 -0.0262,-0.92313 -0.2191,-1.84626 -0.47328,-2.73434 1.37604,-0.77122 3.16318,-1.19189 5.44197,-0.84133 4.88019,0.75954 5.83555,4.82599 5.6515,6.52034 -0.18408,1.69436 -1.20954,2.64086 -1.55137,2.9213 -0.3418,0.28045 -0.44698,0.38561 -0.42071,0.59595 0.0438,0.30381 0.20161,0.29213 0.49084,0.22202 0.40318,-0.0935 2.55841,-1.37886 2.65481,-4.52217 0.14026,-3.97298 -2.72494,-8.34324 -7.80057,-8.30818 z m -37.61633,16.90848 c -1.61183,2.34873 -3.87311,3.2368 -4.84513,2.48895 -1.04299,-0.80862 -0.63106,-4.2651 1.35765,-6.76807 1.20954,-1.51907 2.76877,-2.9213 3.80301,-3.786 0.23665,-0.18697 0.57845,-0.46741 0.99916,-0.80628 0.0701,-0.0584 0.10517,-0.0818 0.10517,-0.0818 0.0789,-0.0701 0.16656,-0.12854 0.25418,-0.19865 0.7266,3.5523 0.0262,6.68394 -1.67404,9.14951 z m 11.77624,-10.68027 c -0.56093,1.83458 -1.74331,6.50866 -2.46199,6.26327 -0.61353,-0.21034 -0.99041,-3.77432 -0.12273,-7.27988 0.43826,-1.76447 1.36729,-3.86781 1.91947,-4.68577 0.88438,-1.32043 1.85724,-1.7411 2.08515,-1.21526 0.30675,0.68943 -1.06932,5.77249 -1.4199,6.91764 z m 9.72883,6.19316 c -0.23665,0.16359 -0.45578,0.26876 -0.56096,0.18696 -0.0789,-0.0584 0.0964,-0.28045 0.0964,-0.28045 0,0 1.21829,-1.74109 1.70035,-2.53569 0.28044,-0.4674 0.60475,-1.01661 0.95447,-1.62424 0,0.0584 0.009,0.11686 0.009,0.18697 -0.0113,2.09165 -1.51805,3.50556 -2.20168,4.06645 z m 7.50081,-2.27862 c -0.1753,-0.16359 -0.149,-0.7128 0.43823,-2.41883 0.22788,-0.66606 0.7529,-1.78784 1.6653,-2.86288 a 3.1710669,4.2277064 0 0 1 0.16653,1.262 c -0.009,2.62917 -1.41987,3.61073 -2.26919,4.01971 z"
           id="path81098"
           style="fill:#ffffff;fill-opacity:1;stroke-width:0.101201" />
      </g>
      <g
         id="g81030"
         transform="matrix(1.5488088,-0.17039716,0.17039716,1.5488088,191.39712,186.36037)">
        <path
           fill="#ff5722"
           d="M 6,10 C 6,7.791 7.791,6 10,6 h 28 c 2.209,0 4,1.791 4,4 v 28 c 0,2.209 -1.791,4 -4,4 H 10 C 7.791,42 6,40.209 6,38 Z"
           id="path81015" />
        <path
           fill="#1c0802"
           d="M 9,9 V 39 H 39 V 9 Z M 23.691,31 22.929,28.09 H 19.013 L 18.252,31 h -3.037 l 4.443,-14.219 h 2.627 L 26.758,31 Z m 7.159,0 H 28.077 V 20.434 H 30.85 Z M 30.552,18.754 c -0.271,0.28 -0.636,0.42 -1.099,0.42 -0.463,0 -0.828,-0.14 -1.099,-0.42 -0.271,-0.28 -0.405,-0.632 -0.405,-1.055 0,-0.43 0.137,-0.781 0.41,-1.055 0.273,-0.274 0.639,-0.41 1.094,-0.41 0.455,0 0.82,0.137 1.094,0.41 0.274,0.273 0.41,0.625 0.41,1.055 0,0.423 -0.135,0.775 -0.405,1.055 z"
           id="path81017" />
        <path
           fill="#1c0802"
           d="m 19.639,25.697 h 2.656 l -1.328,-5.068 z"
           id="path81019" />
      </g>
      <g
         id="g135495"
         transform="rotate(14.407118,-157.98459,61.048843)"
         clip-path="url(#clipPath135712)">
        <path
           id="rect135380"
           style="opacity:1;vector-effect:none;fill:#000000;stroke-width:1.5105;stop-color:#000000;stop-opacity:1"
           d="m 301.28958,119.35493 h 37.86258 v 30.82258 h -37.86258 z" />
        <path
           fill="currentColor"
           d="m 286.07283,101.01731 v 43.95516 a 5.2050404,5.2050404 45 0 0 5.20504,5.20504 h 45.14168 a 5.7468599,5.7468599 135 0 0 5.74686,-5.74686 v -43.41334 a 6.933338,6.933338 45 0 0 -6.93334,-6.933342 h -42.2269 a 6.933338,6.933338 135 0 0 -6.93334,6.933342 z m 30.52593,36.81461 c 0,5.4591 -3.20534,7.95076 -7.87565,7.95076 -4.21951,0 -6.6611,-2.17863 -7.91317,-4.82054 l 4.29466,-2.59182 c 0.82636,1.46494 1.57761,2.70451 3.39316,2.70451 1.72786,0 2.82973,-0.67613 2.82973,-3.31804 v -17.91738 h 5.27127 z m 12.4708,7.95076 c -4.89566,0 -8.06347,-2.32889 -9.6035,-5.38398 l 4.29466,-2.47914 c 1.12686,1.84058 2.60433,3.20535 5.19617,3.20535 2.17861,0 3.58098,-1.08932 3.58098,-2.60434 0,-1.80301 -1.42741,-2.44157 -3.84391,-3.50585 l -1.31473,-0.56344 c -3.80633,-1.61519 -6.32302,-3.6561 -6.32302,-7.95076 0,-3.9566 3.01751,-6.96161 7.71285,-6.96161 3.35558,0 5.7596,1.16444 7.4875,4.21954 l -4.10683,2.62939 c -0.90151,-1.6152 -1.87816,-2.25376 -3.39316,-2.25376 -1.54008,0 -2.51674,0.97663 -2.51674,2.25376 0,1.57763 0.97666,2.21619 3.24291,3.20534 l 1.31473,0.56344 c 4.48244,1.91569 6.99917,3.88147 6.99917,8.28882 0,4.73289 -3.73123,7.33724 -8.72708,7.33724 z"
           id="path81071"
           style="fill:#ffff00;stroke-width:0.125209" />
      </g>
      <g
         id="g81047"
         transform="matrix(1.5385362,-0.24647589,0.24647589,1.5385362,176.65487,211.68399)">
        <path
           fill="#03a9f4"
           d="M 6,10 C 6,7.791 7.791,6 10,6 h 28 c 2.209,0 4,1.791 4,4 v 28 c 0,2.209 -1.791,4 -4,4 H 10 C 7.791,42 6,40.209 6,38 Z"
           id="path81032" />
        <path
           fill="#020f16"
           d="m 20.016,19.174 h -2.002 v 4.434 h 1.973 c 0.547,0 0.97,-0.179 1.27,-0.537 0.3,-0.358 0.449,-0.879 0.449,-1.563 0,-0.71 -0.153,-1.274 -0.459,-1.694 -0.306,-0.42 -0.717,-0.633 -1.231,-0.64 z"
           id="path81034" />
        <path
           fill="#020f16"
           d="M 9,9 V 39 H 39 V 9 Z M 23.365,24.789 C 22.539,25.597 21.393,26 19.928,26 h -1.914 v 5 H 15.143 V 16.781 h 4.844 c 1.406,0 2.528,0.437 3.364,1.309 0.836,0.872 1.255,2.005 1.255,3.398 0,1.393 -0.414,2.493 -1.241,3.301 z m 9.317,5.547 c -0.709,0.573 -1.641,0.859 -2.793,0.859 -0.775,0 -1.459,-0.151 -2.051,-0.454 -0.592,-0.303 -1.057,-0.725 -1.392,-1.265 -0.335,-0.54 -0.503,-1.123 -0.503,-1.748 h 2.627 c 0.014,0.481 0.125,0.843 0.337,1.084 0.212,0.241 0.558,0.361 1.04,0.361 0.742,0 1.113,-0.335 1.113,-1.006 0,-0.234 -0.112,-0.451 -0.337,-0.649 C 30.498,27.32 30,27.052 29.225,26.713 c -1.139,-0.462 -1.922,-0.94 -2.349,-1.436 -0.427,-0.496 -0.64,-1.11 -0.64,-1.846 0,-0.925 0.334,-1.688 1.001,-2.29 0.667,-0.602 1.552,-0.903 2.651,-0.903 1.158,0 2.086,0.3 2.783,0.898 0.697,0.598 1.045,1.403 1.045,2.412 h -2.764 c 0,-0.859 -0.357,-1.289 -1.074,-1.289 -0.293,0 -0.533,0.091 -0.723,0.273 -0.19,0.182 -0.283,0.437 -0.283,0.762 0,0.234 0.104,0.441 0.313,0.62 0.209,0.179 0.699,0.435 1.475,0.767 1.127,0.417 1.922,0.881 2.388,1.392 0.466,0.511 0.698,1.174 0.698,1.987 0,0.945 -0.355,1.703 -1.064,2.276 z"
           id="path81036" />
      </g>
      <g
         id="g134898"
         transform="rotate(-11.915216,806.4474,908.67542)"
         clip-path="url(#clipPath135354)">
        <path
           id="rect134709"
           style="opacity:1;vector-effect:none;fill:#ffffff;stroke-width:0.121859;stop-color:#000000;stop-opacity:1"
           d="m 378.29431,111.17147 h 56.09355 v 56.09354 h -56.09355 z" />
        <g
           style="fill:#000000"
           id="g81058"
           transform="matrix(1.6590768,0,0,1.6613091,386.43069,119.2582)">
          <path
             d="m 11.894531,2.0292969 c -0.616,0 -1.222156,0.2266406 -1.660156,0.6816406 L 2.8808594,10.349609 c -2.78700003,2.827 1.7989375,2.589157 3.4609375,3.660157 0.767,0.506 -2.4626875,1.158172 -1.8046875,1.826172 0.642,0.671999 3.8765781,1.2865 4.5175781,1.9375 0.642,0.667999 -1.3042031,1.378875 -0.6582031,2.046874 0.625,0.668 2.1196246,0.03664 2.3906246,1.556641 0.077,0.442 0.515844,0.623047 1.089844,0.623047 0.891,0 2.108735,-0.437484 2.802735,-1.021484 0.711999,-0.614 -1.232797,-0.61411 -0.591797,-1.28711 0.575,-0.589 1.125,-0.849719 1.625,-1.011718 0.896,-0.295001 1.621,-0.271 2,-1.25 0.321,-0.814001 -2.430266,-1.394969 -1.697266,-1.917969 1.751,-1.249 8.179891,-1.883672 5.212891,-4.888672 L 13.609375,2.7109375 c -0.473,-0.455 -1.098844,-0.6816406 -1.714844,-0.6816406 z m 0,2 c 0.057,0 0.197547,0.011375 0.310547,0.109375 L 17.25,9.375 16,10 15,9 13,10 11,8 9,10 H 6 l 5.675781,-5.9023438 c 0.04,-0.042 0.12475,-0.068359 0.21875,-0.068359 z M 8.4394531,14.070312 c 0.137,0 3.2791099,0.522954 4.4121089,1.126954 0.512001,0.274 0.609172,0.565031 -0.173828,0.832031 -0.024,0.008 -0.05794,0.0087 -0.08594,0.01367 -0.044,0.008 -0.08567,0.01853 -0.138672,0.01953 -0.513,0.006 -1.427438,-0.309406 -2.273437,-0.691406 -0.002,-10e-4 -0.0039,-0.0029 -0.0059,-0.0039 -0.129,-0.059 -0.2568592,-0.119688 -0.3808592,-0.179688 -0.026,-0.013 -0.051172,-0.02411 -0.076172,-0.03711 -0.097,-0.048 -0.1912032,-0.09653 -0.2832031,-0.144532 -0.044,-0.023 -0.086906,-0.04536 -0.1289063,-0.06836 -0.068,-0.037 -0.1352187,-0.07533 -0.1992187,-0.111328 -0.053,-0.03 -0.1052969,-0.06084 -0.1542969,-0.08984 -0.047,-0.028 -0.089813,-0.05408 -0.1328125,-0.08008 -0.055,-0.034 -0.10825,-0.06856 -0.15625,-0.101562 -0.03,-0.021 -0.056984,-0.04055 -0.083984,-0.06055 -0.048,-0.034 -0.092859,-0.06761 -0.1308594,-0.09961 -0.02,-0.017 -0.035734,-0.03087 -0.052734,-0.04687 -0.033,-0.03 -0.064937,-0.05798 -0.085937,-0.08398 -0.013,-0.016 -0.017391,-0.02897 -0.025391,-0.04297 -0.013,-0.021 -0.025344,-0.04355 -0.027344,-0.06055 -0.002,-0.018 0.00853,-0.02997 0.019531,-0.04297 0.006,-0.008 0.00658,-0.01744 0.017578,-0.02344 0.029,-0.015 0.076484,-0.02344 0.1464843,-0.02344 z m 12.0937499,2.4375 C 19.860328,16.534437 19.175,16.900578 19,17.580078 c 0,0.446 3.167187,0.701531 2.992188,-0.105469 -0.126501,-0.68 -0.78611,-0.993421 -1.458985,-0.966797 z M 7.0273438,18.005859 c -1.192875,-0.084 -2.7218907,0.820688 -1.6816407,1.710938 C 6.2307031,20.492797 7.57,19.546078 8,18.455078 7.78475,18.170328 7.4249687,18.033859 7.0273438,18.005859 Z M 18.234375,19 c -0.616,0.633 0.107937,1.296375 0.710937,0.859375 C 19.105313,19.739375 18.930375,19.151 18.234375,19 Z"
             id="path81049" />
        </g>
      </g>
      <g
         id="g149438"
         transform="rotate(-13.349816,639.94705,1056.8517)">
        <rect
           style="font-variation-settings:normal;opacity:1;vector-effect:none;fill:#222222;fill-opacity:1;stroke:none;stroke-width:1.88835;stroke-linecap:butt;stroke-linejoin:miter;stroke-miterlimit:4;stroke-dasharray:none;stroke-dashoffset:0;stroke-opacity:1;-inkscape-stroke:none;stop-color:#000000;stop-opacity:1"
           id="rect142032"
           width="56.093517"
           height="56.093548"
           x="412.28989"
           y="173.44757"
           ry="11.02935" />
        <path
           fill="currentColor"
           d="m 451.09497,195.51954 c -0.35815,-0.13644 -0.71633,-0.26529 -1.07449,-0.38657 0.0597,-0.28045 0.11276,-0.56091 0.16581,-0.84137 0.81583,-4.5176 0.27858,-8.14837 -1.53216,-9.34599 -1.74442,-1.14456 -4.58987,0.0455 -7.46848,2.91067 -0.2852,0.28046 -0.5638,0.57608 -0.82909,0.87169 -0.1791,-0.19708 -0.36481,-0.39416 -0.55054,-0.58365 -3.01789,-3.06228 -6.04243,-4.35085 -7.85316,-3.14565 -1.73779,1.15214 -2.25516,4.57067 -1.52553,8.84572 0.0729,0.42447 0.15254,0.84137 0.24539,1.26584 -0.42449,0.13644 -0.84235,0.28803 -1.23367,0.44721 -3.54191,1.40228 -6.08224,3.61561 -6.08224,5.90473 0,2.36493 2.70616,4.73742 6.38735,6.1776 0.29846,0.1137 0.59693,0.2274 0.90204,0.32594 -0.0995,0.45479 -0.18571,0.90201 -0.2653,1.36438 -0.69646,4.20683 -0.15257,7.54198 1.58522,8.68654 1.79083,1.18247 4.80211,-0.0303 7.73379,-2.96373 0.23216,-0.23498 0.46429,-0.47753 0.69643,-0.73525 0.29185,0.32594 0.59696,0.63671 0.90207,0.93991 2.8388,2.78939 5.64446,3.91879 7.37561,2.77424 1.79085,-1.18247 2.37452,-4.76775 1.61841,-9.13376 -0.0597,-0.33352 -0.12603,-0.67462 -0.199,-1.02329 0.21225,-0.0682 0.41787,-0.14402 0.62348,-0.21982 3.82711,-1.44776 6.59958,-3.78994 6.59958,-6.19276 0,-2.2967 -2.61328,-4.52519 -6.22152,-5.94263 z m -8.97411,-6.43531 c 2.46739,-2.45589 4.76894,-3.41853 5.81694,-2.72876 1.12092,0.73525 1.55205,3.70656 0.84897,7.6102 -0.0464,0.25771 -0.0928,0.50785 -0.15254,0.75798 -1.47248,-0.37899 -2.96485,-0.65187 -4.46385,-0.80346 -0.86227,-1.40986 -1.80409,-2.75908 -2.82554,-4.02492 0.25868,-0.28045 0.51072,-0.54575 0.77602,-0.81104 z m -7.6741,16.3119 c 0.33828,0.65945 0.68317,1.3189 1.04798,1.96318 -1.03471,-0.12885 -2.06278,-0.31834 -3.07759,-0.56848 0.29183,-1.09151 0.65663,-2.22091 1.08114,-3.37305 0.30511,0.66703 0.61684,1.32648 0.94847,1.97835 z m -2.00973,-9.1186 c 0.95512,-0.24255 1.96995,-0.43963 3.02454,-0.59123 -0.35154,0.62913 -0.69643,1.27342 -1.02142,1.92529 -0.32502,0.64429 -0.64339,1.30374 -0.94186,1.97077 -0.41787,-1.1294 -0.76941,-2.23607 -1.06126,-3.30483 z m 1.81738,5.22254 c 0.43778,-1.04603 0.91534,-2.06931 1.41941,-3.07744 0.50409,-1.00811 1.04798,-1.98592 1.61839,-2.94857 0.99493,-0.0834 2.00973,-0.12885 3.04444,-0.12885 1.03471,0 2.05616,0.0455 3.04444,0.12885 0.56377,0.95507 1.10104,1.93288 1.61177,2.93342 0.51072,1.00054 0.98828,2.02383 1.43929,3.06227 -0.44439,1.04602 -0.92195,2.07689 -1.43267,3.09259 -0.50409,1.00812 -1.04134,1.98593 -1.60513,2.95616 -0.98828,0.0834 -2.01635,0.12127 -3.0577,0.12127 -1.04133,0 -2.04951,-0.0379 -3.02453,-0.10611 -0.57706,-0.96265 -1.12093,-1.94803 -1.63165,-2.95616 -0.51072,-1.00812 -0.98167,-2.03141 -1.42606,-3.07743 z m 11.97877,3.8809 c 0.33825,-0.66703 0.65662,-1.34164 0.96838,-2.02383 0.42448,1.09908 0.79593,2.21332 1.12092,3.35789 -1.02807,0.26529 -2.06942,0.46995 -3.11739,0.60639 0.35818,-0.63671 0.69646,-1.28858 1.02809,-1.94045 z m 0.95511,-5.79861 c -0.31175,-0.66703 -0.63012,-1.33406 -0.96175,-1.98593 -0.32499,-0.64429 -0.66327,-1.281 -1.01481,-1.91013 1.06788,0.1516 2.08933,0.35626 3.04444,0.60639 -0.30511,1.12183 -0.66329,2.21333 -1.06788,3.28967 z m -6.83838,-8.52737 c 0.69646,0.86411 1.35308,1.7737 1.96331,2.7136 -1.31331,-0.0682 -2.63322,-0.0682 -3.94649,0 0.65,-0.9778 1.31991,-1.88739 1.98318,-2.7136 z m -7.69398,-4.64646 c 1.1143,-0.74283 3.58831,0.31835 6.19497,2.95615 0.16583,0.16676 0.33167,0.34867 0.50411,0.53059 -1.02809,1.26584 -1.97656,2.61506 -2.84545,4.02492 -1.499,0.15159 -2.98475,0.41689 -4.45721,0.7883 -0.0862,-0.38657 -0.15918,-0.78072 -0.23216,-1.17488 -0.62348,-3.66866 -0.21226,-6.43531 0.83574,-7.12508 z m -1.62503,19.98056 c -0.27858,-0.091 -0.55053,-0.1895 -0.82247,-0.29561 -1.41277,-0.50785 -3.01789,-1.31132 -4.17863,-2.36493 -0.66991,-0.53059 -1.12094,-1.34922 -1.24696,-2.26638 0,-1.38712 2.09596,-3.16081 5.1205,-4.36601 0.37806,-0.1516 0.76277,-0.28804 1.14745,-0.41689 0.45103,1.64483 0.99492,3.25935 1.62502,4.8208 -0.63674,1.5842 -1.18725,3.22145 -1.64491,4.88902 z m 7.73379,7.42828 c -1.09439,1.14457 -2.36127,2.05415 -3.74087,2.67571 -0.73624,0.40173 -1.58524,0.43963 -2.34136,0.0985 -1.05462,-0.69734 -1.49237,-3.37304 -0.89543,-6.97349 0.073,-0.42447 0.15257,-0.84895 0.24542,-1.26584 1.48572,0.36383 2.98473,0.61397 4.50364,0.74283 0.87552,1.41744 1.83726,2.77424 2.86535,4.04766 -0.21226,0.23497 -0.42449,0.46237 -0.63675,0.6746 z m 1.62503,-1.8419 c -0.67655,-0.83379 -1.35308,-1.75854 -2.00973,-2.7515 0.63674,0.0303 1.2934,0.0455 1.95666,0.0455 0.68317,0 1.35308,-0.0151 2.01635,-0.053 -0.6102,0.96264 -1.26684,1.87981 -1.96328,2.75908 z m 8.669,2.27396 c -0.0597,0.92475 -0.45766,1.78885 -1.0944,2.37251 -1.05461,0.69734 -3.30312,-0.21224 -5.7307,-2.59233 -0.27858,-0.27287 -0.55715,-0.56848 -0.84236,-0.87168 1.01481,-1.281 1.95002,-2.6378 2.79902,-4.06282 1.51891,-0.14402 3.03118,-0.40931 4.52355,-0.79589 0.0663,0.31078 0.12601,0.62155 0.17908,0.92475 0.325,1.63725 0.37807,3.34273 0.16581,5.02546 z m 1.20716,-8.14837 c -0.18571,0.0682 -0.37142,0.13643 -0.56377,0.19707 -0.4643,-1.65241 -1.03471,-3.26693 -1.69136,-4.83596 0.63674,-1.54629 1.17399,-3.13807 1.62502,-4.76775 0.3449,0.1137 0.67653,0.23498 0.99491,0.35626 3.09086,1.21278 5.25978,3.01679 5.25978,4.39633 0,1.48566 -2.31484,3.40336 -5.62458,4.65405 z m -9.92923,-1.13698 c 1.6781,0 3.0378,-1.55388 3.0378,-3.47159 0,-1.91771 -1.3597,-3.47159 -3.0378,-3.47159 -1.67807,0 -3.0378,1.55388 -3.0378,3.47159 0,1.91771 1.35973,3.47159 3.0378,3.47159 z"
           id="path81089"
           style="fill:#5dceeb;fill-opacity:1;stroke-width:0.0709052" />
      </g>
      <g
         id="g149668"
         transform="rotate(7.3265869,-800.35622,788.33156)">
        <path
           id="rect149542"
           style="opacity:1;vector-effect:none;fill:#ffffff;stroke-width:2.80691;stop-color:#000000;stop-opacity:1"
           d="m 233.57851,94.831367 h 41.83271 v 35.631043 h -41.83271 z" />
        <g
           style="fill:#1d66cf;fill-opacity:1"
           id="g81069"
           transform="matrix(4.6915278,0,0,4.6915278,194.48749,48.343566)">
          <path
             d="m 6.0218093,7.3503086 v 9.2993824 c 0,0.733987 0.5944978,1.328484 1.3284868,1.328484 h 9.2994079 c 0.733989,0 1.328487,-0.594497 1.328487,-1.328484 V 7.3503086 c 0,-0.733987 -0.594498,-1.3284833 -1.328487,-1.3284833 H 7.3502961 c -0.733989,0 -1.3284868,0.5944963 -1.3284868,1.3284833 z M 13.10663,12.299573 h -1.406868 v 4.350118 H 10.565898 V 12.299573 H 9.1882576 V 11.335758 H 13.10663 Z m 0.220528,4.101692 v -1.163087 c 0,0 0.635017,0.478918 1.397568,0.478918 0.762552,0 0.732661,-0.498181 0.732661,-0.566598 0,-0.723359 -2.159455,-0.723359 -2.159455,-2.32551 0,-2.179377 3.146521,-1.319184 3.146521,-1.319184 l -0.03919,1.035553 c 0,0 -0.527409,-0.352048 -1.1239,-0.352048 -0.595826,0 -0.811041,0.283631 -0.811041,0.586525 0,0.781813 2.179383,0.703432 2.179383,2.277021 0,2.423153 -3.322546,1.34841 -3.322546,1.34841 z"
             id="path81060"
             style="fill:#1d66cf;fill-opacity:1;stroke-width:0.664243" />
        </g>
      </g>
      <g
         id="g164764"
         transform="rotate(10.047947,294.45588,273.46355)">
        <path
           id="rect151566"
           style="opacity:1;vector-effect:none;fill:#13ae44;fill-opacity:1;stroke-width:1.82517;stop-color:#000000;stop-opacity:1"
           d="m 273.40308,245.41677 h 42.1056 a 6.9939655,6.9939655 45 0 1 6.99397,6.99397 v 42.10562 a 6.9939655,6.9939655 135 0 1 -6.99397,6.99397 h -42.1056 a 6.9939655,6.9939655 45 0 1 -6.99397,-6.99397 v -42.10562 a 6.9939655,6.9939655 135 0 1 6.99397,-6.99397 z" />
        <path
           fill="currentColor"
           d="m 294.44695,293.36068 c -0.59672,0 -1.20235,-0.14212 -1.72785,-0.41062 l -5.49531,-2.8822 c -0.81937,-0.41062 -0.4186,-0.55277 -0.15142,-0.63174 1.09552,-0.33954 1.31819,-0.4106 2.48493,-1.00285 0.12466,-0.0631 0.28502,-0.0395 0.40969,0.0317 l 4.22171,2.2189 c 0.15142,0.079 0.36514,0.079 0.50767,0 l 16.4503,-8.41763 c 0.15142,-0.079 0.2494,-0.2369 0.2494,-0.39482 v -16.83526 c 0,-0.16582 -0.0981,-0.31585 -0.25829,-0.40272 l -16.44141,-8.40974 c -0.15142,-0.079 -0.35629,-0.079 -0.50767,0 l -16.43252,8.41764 c -0.16039,0.079 -0.2583,0.23689 -0.2583,0.40272 v 16.82736 c 0,0.15794 0.0981,0.31586 0.2583,0.38692 l 4.50667,2.30578 c 2.44932,1.0818 3.94561,-0.18952 3.94561,-1.47665 v -16.61423 c 0,-0.2369 0.21376,-0.41852 0.48094,-0.41852 h 2.08413 c 0.25829,0 0.48094,0.18162 0.48094,0.41852 v 16.62205 c 0,2.89011 -1.78128,4.54836 -4.87185,4.54836 -0.95298,0 -1.70114,0 -3.78527,-0.91598 l -4.31073,-2.20312 c -1.06879,-0.54485 -1.72787,-1.5635 -1.72787,-2.66111 v -16.82736 c 0,-1.0897 0.65908,-2.11625 1.72787,-2.66112 l 16.43248,-8.41761 c 1.0421,-0.52117 2.42259,-0.52117 3.45576,0 l 16.45028,8.42551 c 1.06879,0.54487 1.72787,1.56352 1.72787,2.66112 v 16.82731 c 0,1.08972 -0.65908,2.10837 -1.72787,2.66112 l -16.45028,8.41763 c -0.5255,0.26847 -1.12224,0.41062 -1.72791,0.41062 z m 13.27962,-16.59048 c 0,-3.15069 -2.40474,-3.98771 -7.45474,-4.57995 -5.11234,-0.60013 -5.62893,-0.90809 -5.62893,-1.96622 0,-0.87649 0.43644,-2.04517 4.22171,-2.04517 3.37555,0 4.62248,0.6475 5.13902,2.669 0.0445,0.18951 0.24049,0.33164 0.46316,0.33164 h 2.13757 c 0.13363,0 0.25829,-0.0473 0.34733,-0.13428 0.0891,-0.0868 0.13363,-0.20531 0.12466,-0.32375 -0.32956,-3.48235 -2.93917,-5.10113 -8.21181,-5.10113 -4.69374,0 -7.49038,1.75303 -7.49038,4.69841 0,3.19017 2.78775,4.07457 7.28551,4.46939 5.38844,0.4659 5.80706,1.16867 5.80706,2.10837 0,1.62665 -1.47848,2.32155 -4.94312,2.32155 -4.35526,0 -5.30828,-0.97126 -5.62891,-2.8901 -0.0356,-0.20531 -0.23157,-0.35535 -0.47205,-0.35535 h -2.12863 c -0.26722,0 -0.47205,0.18951 -0.47205,0.41851 0,2.45581 1.5052,5.38539 8.71056,5.38539 5.20139,-0.008 8.19397,-1.83198 8.19397,-5.00636 z"
           id="path81080"
           style="fill:#ffffff;fill-opacity:1;stroke-width:0.0838628" />
      </g>
      <g
         id="g80466"
         transform="matrix(1.5007564,0,0,1.5007564,-72.579577,125.08466)">
        <path
           id="rect8273"
           style="fill:#d3b775;fill-opacity:1;stroke-width:3.96875;stroke-linecap:round;stroke-dashoffset:7.1811;stop-color:#000000"
           d="m 174.08397,74.513939 56.97099,32.892221 v 56.97099 l -56.97099,-32.89222 z" />
        <path
           id="path71253"
           style="fill:#f2cf8b;fill-opacity:1;stroke:none;stroke-width:0.264583px;stroke-linecap:butt;stroke-linejoin:miter;stroke-opacity:1"
           d="m 174.08397,74.513939 -12.83906,28.288731 56.97099,32.89222 12.83906,-28.28873" />
      </g>
      <path
         style="fill:#b68c58;fill-opacity:1;stroke:none;stroke-width:0.264583px;stroke-linecap:butt;stroke-linejoin:miter;stroke-opacity:1"
         d="m 274.17762,371.77472 -2.6e-4,-85.49942 85.49968,-49.36359 v 85.49959 z"
         id="path125623" />
      <path
         id="path71019"
         style="fill:#f2cf8b;fill-opacity:1;stroke:none;stroke-width:0.397075px;stroke-linecap:butt;stroke-linejoin:miter;stroke-opacity:1"
         d="m 359.67677,236.91188 21.28386,42.17574 -85.49958,49.3632 -21.2837,-42.17552" />
    </g>
  </g>
  <g
     id="layer2" />
</svg>
