<?xml version="1.0" encoding="UTF-8" standalone="no"?>
<!-- Created with Inkscape (http://www.inkscape.org/) -->

<svg
   width="65"
   height="65"
   viewBox="0 0 17.197917 17.197917"
   version="1.1"
   id="svg5"
   xmlns:xlink="http://www.w3.org/1999/xlink"
   xmlns="http://www.w3.org/2000/svg"
   xmlns:svg="http://www.w3.org/2000/svg">
  <defs
     id="defs2">
    <color-profile
       name="sRGB"
       xlink:href="file:///usr/share/color/icc/colord/sRGB.icc"
       id="color-profile2805" />
  </defs>
  <g
     id="layer1"
     transform="translate(-15.702216,1.4081386)"
     style="display:inline">
    <g
       id="g81030"
       transform="matrix(0.41566169,-0.00418775,0.00418775,0.41566169,14.224788,-2.6845547)">
      <path
         fill="#ff5722"
         d="M 6,10 C 6,7.791 7.791,6 10,6 h 28 c 2.209,0 4,1.791 4,4 v 28 c 0,2.209 -1.791,4 -4,4 H 10 C 7.791,42 6,40.209 6,38 Z"
         id="path81015" />
      <path
         fill="#1c0802"
         d="M 9,9 V 39 H 39 V 9 Z M 23.691,31 22.929,28.09 H 19.013 L 18.252,31 h -3.037 l 4.443,-14.219 h 2.627 L 26.758,31 Z m 7.159,0 H 28.077 V 20.434 H 30.85 Z M 30.552,18.754 c -0.271,0.28 -0.636,0.42 -1.099,0.42 -0.463,0 -0.828,-0.14 -1.099,-0.42 -0.271,-0.28 -0.405,-0.632 -0.405,-1.055 0,-0.43 0.137,-0.781 0.41,-1.055 0.273,-0.274 0.639,-0.41 1.094,-0.41 0.455,0 0.82,0.137 1.094,0.41 0.274,0.273 0.41,0.625 0.41,1.055 0,0.423 -0.135,0.775 -0.405,1.055 z"
         id="path81017" />
      <path
         fill="#1c0802"
         d="m 19.639,25.697 h 2.656 l -1.328,-5.068 z"
         id="path81019" />
    </g>
  </g>
  <g
     id="layer2" />
</svg>
