<?xml version="1.0" encoding="UTF-8" standalone="no"?>
<!-- Created with Inkscape (http://www.inkscape.org/) -->

<svg
   width="65"
   height="65"
   viewBox="0 0 17.197917 17.197917"
   version="1.1"
   id="svg5"
   xmlns:xlink="http://www.w3.org/1999/xlink"
   xmlns="http://www.w3.org/2000/svg"
   xmlns:svg="http://www.w3.org/2000/svg">
  <defs
     id="defs2">
    <color-profile
       name="sRGB"
       xlink:href="file:///usr/share/color/icc/colord/sRGB.icc"
       id="color-profile2967" />
    <clipPath
       clipPathUnits="userSpaceOnUse"
       id="clipPath135354">
      <path
         id="path135356"
         style="opacity:1;vector-effect:none;fill:#ffffff;stroke-width:0.121859;stop-color:#000000;stop-opacity:1"
         d="m 385.74177,111.17147 h 41.19862 c 4.12591,0 7.44746,3.32157 7.44746,7.44746 v 41.19862 c 0,4.12589 -3.32155,7.44746 -7.44746,7.44746 h -41.19862 c -4.12588,0 -7.44746,-3.32157 -7.44746,-7.44746 v -41.19862 c 0,-4.12589 3.32158,-7.44746 7.44746,-7.44746 z" />
    </clipPath>
  </defs>
  <g
     id="layer1"
     transform="translate(-15.702216,1.4081386)"
     style="display:inline">
    <g
       id="g134898"
       transform="matrix(0.2680256,0.00113375,-0.00113375,0.2680256,-84.450798,-30.583922)"
       clip-path="url(#clipPath135354)">
      <path
         id="rect134709"
         style="opacity:1;vector-effect:none;fill:#ffffff;stroke-width:0.121859;stop-color:#000000;stop-opacity:1"
         d="m 378.29431,111.17147 h 56.09355 v 56.09354 h -56.09355 z" />
      <g
         style="fill:#000000"
         id="g81058"
         transform="matrix(1.6590768,0,0,1.6613091,386.43069,119.2582)">
        <path
           d="m 11.894531,2.0292969 c -0.616,0 -1.222156,0.2266406 -1.660156,0.6816406 L 2.8808594,10.349609 c -2.78700003,2.827 1.7989375,2.589157 3.4609375,3.660157 0.767,0.506 -2.4626875,1.158172 -1.8046875,1.826172 0.642,0.671999 3.8765781,1.2865 4.5175781,1.9375 0.642,0.667999 -1.3042031,1.378875 -0.6582031,2.046874 0.625,0.668 2.1196246,0.03664 2.3906246,1.556641 0.077,0.442 0.515844,0.623047 1.089844,0.623047 0.891,0 2.108735,-0.437484 2.802735,-1.021484 0.711999,-0.614 -1.232797,-0.61411 -0.591797,-1.28711 0.575,-0.589 1.125,-0.849719 1.625,-1.011718 0.896,-0.295001 1.621,-0.271 2,-1.25 0.321,-0.814001 -2.430266,-1.394969 -1.697266,-1.917969 1.751,-1.249 8.179891,-1.883672 5.212891,-4.888672 L 13.609375,2.7109375 c -0.473,-0.455 -1.098844,-0.6816406 -1.714844,-0.6816406 z m 0,2 c 0.057,0 0.197547,0.011375 0.310547,0.109375 L 17.25,9.375 16,10 15,9 13,10 11,8 9,10 H 6 l 5.675781,-5.9023438 c 0.04,-0.042 0.12475,-0.068359 0.21875,-0.068359 z M 8.4394531,14.070312 c 0.137,0 3.2791099,0.522954 4.4121089,1.126954 0.512001,0.274 0.609172,0.565031 -0.173828,0.832031 -0.024,0.008 -0.05794,0.0087 -0.08594,0.01367 -0.044,0.008 -0.08567,0.01853 -0.138672,0.01953 -0.513,0.006 -1.427438,-0.309406 -2.273437,-0.691406 -0.002,-10e-4 -0.0039,-0.0029 -0.0059,-0.0039 -0.129,-0.059 -0.2568592,-0.119688 -0.3808592,-0.179688 -0.026,-0.013 -0.051172,-0.02411 -0.076172,-0.03711 -0.097,-0.048 -0.1912032,-0.09653 -0.2832031,-0.144532 -0.044,-0.023 -0.086906,-0.04536 -0.1289063,-0.06836 -0.068,-0.037 -0.1352187,-0.07533 -0.1992187,-0.111328 -0.053,-0.03 -0.1052969,-0.06084 -0.1542969,-0.08984 -0.047,-0.028 -0.089813,-0.05408 -0.1328125,-0.08008 -0.055,-0.034 -0.10825,-0.06856 -0.15625,-0.101562 -0.03,-0.021 -0.056984,-0.04055 -0.083984,-0.06055 -0.048,-0.034 -0.092859,-0.06761 -0.1308594,-0.09961 -0.02,-0.017 -0.035734,-0.03087 -0.052734,-0.04687 -0.033,-0.03 -0.064937,-0.05798 -0.085937,-0.08398 -0.013,-0.016 -0.017391,-0.02897 -0.025391,-0.04297 -0.013,-0.021 -0.025344,-0.04355 -0.027344,-0.06055 -0.002,-0.018 0.00853,-0.02997 0.019531,-0.04297 0.006,-0.008 0.00658,-0.01744 0.017578,-0.02344 0.029,-0.015 0.076484,-0.02344 0.1464843,-0.02344 z m 12.0937499,2.4375 C 19.860328,16.534437 19.175,16.900578 19,17.580078 c 0,0.446 3.167187,0.701531 2.992188,-0.105469 -0.126501,-0.68 -0.78611,-0.993421 -1.458985,-0.966797 z M 7.0273438,18.005859 c -1.192875,-0.084 -2.7218907,0.820688 -1.6816407,1.710938 C 6.2307031,20.492797 7.57,19.546078 8,18.455078 7.78475,18.170328 7.4249687,18.033859 7.0273438,18.005859 Z M 18.234375,19 c -0.616,0.633 0.107937,1.296375 0.710937,0.859375 C 19.105313,19.739375 18.930375,19.151 18.234375,19 Z"
           id="path81049" />
      </g>
    </g>
  </g>
  <g
     id="layer2" />
</svg>
