<?xml version="1.0" encoding="UTF-8" standalone="no"?>
<!-- Created with Inkscape (http://www.inkscape.org/) -->

<svg
   width="65"
   height="65"
   viewBox="0 0 17.197917 17.197917"
   version="1.1"
   id="svg5"
   xmlns:xlink="http://www.w3.org/1999/xlink"
   xmlns="http://www.w3.org/2000/svg"
   xmlns:svg="http://www.w3.org/2000/svg">
  <defs
     id="defs2">
    <color-profile
       name="sRGB"
       xlink:href="file:///usr/share/color/icc/colord/sRGB.icc"
       id="color-profile3290" />
    <clipPath
       clipPathUnits="userSpaceOnUse"
       id="clipPath135354">
      <path
         id="path135356"
         style="opacity:1;vector-effect:none;fill:#ffffff;stroke-width:0.121859;stop-color:#000000;stop-opacity:1"
         d="m 385.74177,111.17147 h 41.19862 c 4.12591,0 7.44746,3.32157 7.44746,7.44746 v 41.19862 c 0,4.12589 -3.32155,7.44746 -7.44746,7.44746 h -41.19862 c -4.12588,0 -7.44746,-3.32157 -7.44746,-7.44746 v -41.19862 c 0,-4.12589 3.32158,-7.44746 7.44746,-7.44746 z" />
    </clipPath>
    <clipPath
       clipPathUnits="userSpaceOnUse"
       id="clipPath135712">
      <path
         id="path135714"
         style="opacity:1;vector-effect:none;fill:#ffffff;stroke-width:3.7007;stop-color:#000000;stop-opacity:1"
         d="m 286.07285,94.083963 h 56.09354 v 56.093547 h -56.09354 z" />
    </clipPath>
  </defs>
  <g
     id="layer1"
     transform="translate(-15.702216,1.4081386)"
     style="display:inline">
    <g
       id="g135495"
       transform="matrix(0.26822011,8.1467375e-4,-8.1467375e-4,0.26822011,-59.851825,-25.824597)"
       clip-path="url(#clipPath135712)">
      <path
         id="rect135380"
         style="opacity:1;vector-effect:none;fill:#000000;stroke-width:1.5105;stop-color:#000000;stop-opacity:1"
         d="m 301.28958,119.35493 h 37.86258 v 30.82258 h -37.86258 z" />
      <path
         fill="currentColor"
         d="m 286.07283,101.01731 v 43.95516 a 5.2050404,5.2050404 45 0 0 5.20504,5.20504 h 45.14168 a 5.7468599,5.7468599 135 0 0 5.74686,-5.74686 v -43.41334 a 6.933338,6.933338 45 0 0 -6.93334,-6.933342 h -42.2269 a 6.933338,6.933338 135 0 0 -6.93334,6.933342 z m 30.52593,36.81461 c 0,5.4591 -3.20534,7.95076 -7.87565,7.95076 -4.21951,0 -6.6611,-2.17863 -7.91317,-4.82054 l 4.29466,-2.59182 c 0.82636,1.46494 1.57761,2.70451 3.39316,2.70451 1.72786,0 2.82973,-0.67613 2.82973,-3.31804 v -17.91738 h 5.27127 z m 12.4708,7.95076 c -4.89566,0 -8.06347,-2.32889 -9.6035,-5.38398 l 4.29466,-2.47914 c 1.12686,1.84058 2.60433,3.20535 5.19617,3.20535 2.17861,0 3.58098,-1.08932 3.58098,-2.60434 0,-1.80301 -1.42741,-2.44157 -3.84391,-3.50585 l -1.31473,-0.56344 c -3.80633,-1.61519 -6.32302,-3.6561 -6.32302,-7.95076 0,-3.9566 3.01751,-6.96161 7.71285,-6.96161 3.35558,0 5.7596,1.16444 7.4875,4.21954 l -4.10683,2.62939 c -0.90151,-1.6152 -1.87816,-2.25376 -3.39316,-2.25376 -1.54008,0 -2.51674,0.97663 -2.51674,2.25376 0,1.57763 0.97666,2.21619 3.24291,3.20534 l 1.31473,0.56344 c 4.48244,1.91569 6.99917,3.88147 6.99917,8.28882 0,4.73289 -3.73123,7.33724 -8.72708,7.33724 z"
         id="path81071"
         style="fill:#ffff00;stroke-width:0.125209" />
    </g>
  </g>
  <g
     id="layer2" />
</svg>
