<?xml version="1.0" encoding="UTF-8" standalone="no"?>
<!-- Created with Inkscape (http://www.inkscape.org/) -->

<svg
   width="65"
   height="65"
   viewBox="0 0 17.197917 17.197917"
   version="1.1"
   id="svg5"
   xmlns:xlink="http://www.w3.org/1999/xlink"
   xmlns="http://www.w3.org/2000/svg"
   xmlns:svg="http://www.w3.org/2000/svg">
  <defs
     id="defs2">
    <color-profile
       name="sRGB"
       xlink:href="file:///usr/share/color/icc/colord/sRGB.icc"
       id="color-profile3737" />
    <clipPath
       clipPathUnits="userSpaceOnUse"
       id="clipPath135354">
      <path
         id="path135356"
         style="opacity:1;vector-effect:none;fill:#ffffff;stroke-width:0.121859;stop-color:#000000;stop-opacity:1"
         d="m 385.74177,111.17147 h 41.19862 c 4.12591,0 7.44746,3.32157 7.44746,7.44746 v 41.19862 c 0,4.12589 -3.32155,7.44746 -7.44746,7.44746 h -41.19862 c -4.12588,0 -7.44746,-3.32157 -7.44746,-7.44746 v -41.19862 c 0,-4.12589 3.32158,-7.44746 7.44746,-7.44746 z" />
    </clipPath>
    <clipPath
       clipPathUnits="userSpaceOnUse"
       id="clipPath135712">
      <path
         id="path135714"
         style="opacity:1;vector-effect:none;fill:#ffffff;stroke-width:3.7007;stop-color:#000000;stop-opacity:1"
         d="m 286.07285,94.083963 h 56.09354 v 56.093547 h -56.09354 z" />
    </clipPath>
  </defs>
  <g
     id="layer1"
     transform="translate(-15.702216,1.4081386)"
     style="display:inline">
    <g
       id="g164764"
       transform="matrix(0.26765727,-0.0015993,0.0015993,0.26765727,-54.949433,-65.532764)">
      <path
         id="rect151566"
         style="opacity:1;vector-effect:none;fill:#13ae44;fill-opacity:1;stroke-width:1.82517;stop-color:#000000;stop-opacity:1"
         d="m 273.40308,245.41677 h 42.1056 a 6.9939655,6.9939655 45 0 1 6.99397,6.99397 v 42.10562 a 6.9939655,6.9939655 135 0 1 -6.99397,6.99397 h -42.1056 a 6.9939655,6.9939655 45 0 1 -6.99397,-6.99397 v -42.10562 a 6.9939655,6.9939655 135 0 1 6.99397,-6.99397 z" />
      <path
         fill="currentColor"
         d="m 294.44695,293.36068 c -0.59672,0 -1.20235,-0.14212 -1.72785,-0.41062 l -5.49531,-2.8822 c -0.81937,-0.41062 -0.4186,-0.55277 -0.15142,-0.63174 1.09552,-0.33954 1.31819,-0.4106 2.48493,-1.00285 0.12466,-0.0631 0.28502,-0.0395 0.40969,0.0317 l 4.22171,2.2189 c 0.15142,0.079 0.36514,0.079 0.50767,0 l 16.4503,-8.41763 c 0.15142,-0.079 0.2494,-0.2369 0.2494,-0.39482 v -16.83526 c 0,-0.16582 -0.0981,-0.31585 -0.25829,-0.40272 l -16.44141,-8.40974 c -0.15142,-0.079 -0.35629,-0.079 -0.50767,0 l -16.43252,8.41764 c -0.16039,0.079 -0.2583,0.23689 -0.2583,0.40272 v 16.82736 c 0,0.15794 0.0981,0.31586 0.2583,0.38692 l 4.50667,2.30578 c 2.44932,1.0818 3.94561,-0.18952 3.94561,-1.47665 v -16.61423 c 0,-0.2369 0.21376,-0.41852 0.48094,-0.41852 h 2.08413 c 0.25829,0 0.48094,0.18162 0.48094,0.41852 v 16.62205 c 0,2.89011 -1.78128,4.54836 -4.87185,4.54836 -0.95298,0 -1.70114,0 -3.78527,-0.91598 l -4.31073,-2.20312 c -1.06879,-0.54485 -1.72787,-1.5635 -1.72787,-2.66111 v -16.82736 c 0,-1.0897 0.65908,-2.11625 1.72787,-2.66112 l 16.43248,-8.41761 c 1.0421,-0.52117 2.42259,-0.52117 3.45576,0 l 16.45028,8.42551 c 1.06879,0.54487 1.72787,1.56352 1.72787,2.66112 v 16.82731 c 0,1.08972 -0.65908,2.10837 -1.72787,2.66112 l -16.45028,8.41763 c -0.5255,0.26847 -1.12224,0.41062 -1.72791,0.41062 z m 13.27962,-16.59048 c 0,-3.15069 -2.40474,-3.98771 -7.45474,-4.57995 -5.11234,-0.60013 -5.62893,-0.90809 -5.62893,-1.96622 0,-0.87649 0.43644,-2.04517 4.22171,-2.04517 3.37555,0 4.62248,0.6475 5.13902,2.669 0.0445,0.18951 0.24049,0.33164 0.46316,0.33164 h 2.13757 c 0.13363,0 0.25829,-0.0473 0.34733,-0.13428 0.0891,-0.0868 0.13363,-0.20531 0.12466,-0.32375 -0.32956,-3.48235 -2.93917,-5.10113 -8.21181,-5.10113 -4.69374,0 -7.49038,1.75303 -7.49038,4.69841 0,3.19017 2.78775,4.07457 7.28551,4.46939 5.38844,0.4659 5.80706,1.16867 5.80706,2.10837 0,1.62665 -1.47848,2.32155 -4.94312,2.32155 -4.35526,0 -5.30828,-0.97126 -5.62891,-2.8901 -0.0356,-0.20531 -0.23157,-0.35535 -0.47205,-0.35535 h -2.12863 c -0.26722,0 -0.47205,0.18951 -0.47205,0.41851 0,2.45581 1.5052,5.38539 8.71056,5.38539 5.20139,-0.008 8.19397,-1.83198 8.19397,-5.00636 z"
         id="path81080"
         style="fill:#ffffff;fill-opacity:1;stroke-width:0.0838628" />
    </g>
  </g>
  <g
     id="layer2" />
</svg>
