<?xml version="1.0" encoding="UTF-8" standalone="no"?>
<!-- Created with Inkscape (http://www.inkscape.org/) -->

<svg
   width="65"
   height="65"
   viewBox="0 0 17.197917 17.197917"
   version="1.1"
   id="svg5"
   xmlns:xlink="http://www.w3.org/1999/xlink"
   xmlns="http://www.w3.org/2000/svg"
   xmlns:svg="http://www.w3.org/2000/svg">
  <defs
     id="defs2">
    <color-profile
       name="sRGB"
       xlink:href="file:///usr/share/color/icc/colord/sRGB.icc"
       id="color-profile2653" />
  </defs>
  <g
     id="layer1"
     transform="translate(-15.702216,1.4081386)"
     style="display:inline">
    <g
       id="g81047"
       transform="matrix(0.41630914,0.00335753,-0.00335753,0.41630914,14.390336,-2.8811802)">
      <path
         fill="#03a9f4"
         d="M 6,10 C 6,7.791 7.791,6 10,6 h 28 c 2.209,0 4,1.791 4,4 v 28 c 0,2.209 -1.791,4 -4,4 H 10 C 7.791,42 6,40.209 6,38 Z"
         id="path81032" />
      <path
         fill="#020f16"
         d="m 20.016,19.174 h -2.002 v 4.434 h 1.973 c 0.547,0 0.97,-0.179 1.27,-0.537 0.3,-0.358 0.449,-0.879 0.449,-1.563 0,-0.71 -0.153,-1.274 -0.459,-1.694 -0.306,-0.42 -0.717,-0.633 -1.231,-0.64 z"
         id="path81034" />
      <path
         fill="#020f16"
         d="M 9,9 V 39 H 39 V 9 Z M 23.365,24.789 C 22.539,25.597 21.393,26 19.928,26 h -1.914 v 5 H 15.143 V 16.781 h 4.844 c 1.406,0 2.528,0.437 3.364,1.309 0.836,0.872 1.255,2.005 1.255,3.398 0,1.393 -0.414,2.493 -1.241,3.301 z m 9.317,5.547 c -0.709,0.573 -1.641,0.859 -2.793,0.859 -0.775,0 -1.459,-0.151 -2.051,-0.454 -0.592,-0.303 -1.057,-0.725 -1.392,-1.265 -0.335,-0.54 -0.503,-1.123 -0.503,-1.748 h 2.627 c 0.014,0.481 0.125,0.843 0.337,1.084 0.212,0.241 0.558,0.361 1.04,0.361 0.742,0 1.113,-0.335 1.113,-1.006 0,-0.234 -0.112,-0.451 -0.337,-0.649 C 30.498,27.32 30,27.052 29.225,26.713 c -1.139,-0.462 -1.922,-0.94 -2.349,-1.436 -0.427,-0.496 -0.64,-1.11 -0.64,-1.846 0,-0.925 0.334,-1.688 1.001,-2.29 0.667,-0.602 1.552,-0.903 2.651,-0.903 1.158,0 2.086,0.3 2.783,0.898 0.697,0.598 1.045,1.403 1.045,2.412 h -2.764 c 0,-0.859 -0.357,-1.289 -1.074,-1.289 -0.293,0 -0.533,0.091 -0.723,0.273 -0.19,0.182 -0.283,0.437 -0.283,0.762 0,0.234 0.104,0.441 0.313,0.62 0.209,0.179 0.699,0.435 1.475,0.767 1.127,0.417 1.922,0.881 2.388,1.392 0.466,0.511 0.698,1.174 0.698,1.987 0,0.945 -0.355,1.703 -1.064,2.276 z"
         id="path81036" />
    </g>
  </g>
  <g
     id="layer2" />
</svg>
