<?xml version="1.0" encoding="UTF-8" standalone="no"?>
<!-- Created with Inkscape (http://www.inkscape.org/) -->

<svg
   width="500.00003"
   height="500.00003"
   viewBox="0 0 132.29167 132.29167"
   version="1.1"
   id="svg5"
   sodipodi:docname="pointing_up.svg"
   inkscape:version="1.1 (1:1.1+202105261517+ce6663b3b7)"
   xmlns:inkscape="http://www.inkscape.org/namespaces/inkscape"
   xmlns:sodipodi="http://sodipodi.sourceforge.net/DTD/sodipodi-0.dtd"
   xmlns:xlink="http://www.w3.org/1999/xlink"
   xmlns="http://www.w3.org/2000/svg"
   xmlns:svg="http://www.w3.org/2000/svg">
  <sodipodi:namedview
     id="namedview2517"
     pagecolor="#323232"
     bordercolor="#999999"
     borderopacity="1"
     inkscape:pageshadow="0"
     inkscape:pageopacity="0"
     inkscape:pagecheckerboard="0"
     showgrid="false"
     inkscape:zoom="0.55083615"
     inkscape:cx="108.92531"
     inkscape:cy="244.17424"
     inkscape:window-width="1920"
     inkscape:window-height="1016"
     inkscape:window-x="0"
     inkscape:window-y="27"
     inkscape:window-maximized="1"
     inkscape:current-layer="layer2" />
  <defs
     id="defs2">
    <color-profile
       name="sRGB"
       xlink:href="file:///usr/share/color/icc/colord/sRGB.icc"
       id="color-profile4209" />
    <clipPath
       clipPathUnits="userSpaceOnUse"
       id="clipPath47956">
      <rect
         style="opacity:0.451158;fill:#ffb380;fill-opacity:1;stroke:#160a04;stroke-width:2.57652;stroke-linecap:round;stroke-linejoin:round;stroke-miterlimit:4;stroke-dasharray:none;stroke-dashoffset:7.1811;stroke-opacity:1;stop-color:#000000"
         id="rect47958"
         width="242.95546"
         height="322.82709"
         x="122.53345"
         y="200.21147" />
    </clipPath>
    <clipPath
       clipPathUnits="userSpaceOnUse"
       id="clipPath3866">
      <path
         id="path3868"
         style="opacity:0.227985;fill:#ff0000;stroke-width:2.64583;stroke-linecap:round;stroke-linejoin:round;stroke-dashoffset:7.1811;stop-color:#000000"
         d="m 17.277439,0.67318001 h 97.736781 c 0.31956,0 0.57682,0.2572608 0.57682,0.57681819 V 131.04167 c 0,0.31956 -0.25726,0.57682 -0.57682,0.57682 H 17.277439 c -0.31955,0 -0.576811,-0.25726 -0.576811,-0.57682 V 1.2499982 c 0,-0.31955739 0.25726,-0.57681819 0.576811,-0.57681819 z" />
    </clipPath>
    <clipPath
       clipPathUnits="userSpaceOnUse"
       id="clipPath47956-1">
      <rect
         style="opacity:0.451158;fill:#ffb380;fill-opacity:1;stroke:#160a04;stroke-width:2.57652;stroke-linecap:round;stroke-linejoin:round;stroke-miterlimit:4;stroke-dasharray:none;stroke-dashoffset:7.1811;stroke-opacity:1;stop-color:#000000"
         id="rect47958-7"
         width="242.95546"
         height="322.82709"
         x="122.53345"
         y="200.21147" />
    </clipPath>
  </defs>
  <g
     id="layer2">
    <g
       id="g47954"
       clip-path="url(#clipPath47956-1)"
       transform="matrix(0.40008471,0,0,0.40008471,-30.163026,-79.517024)">
      <path
         style="fill:#ffb380;fill-opacity:1;stroke:#160a04;stroke-width:2.64583;stroke-linecap:butt;stroke-linejoin:miter;stroke-miterlimit:4;stroke-dasharray:none;stroke-opacity:1"
         d="m 138.32708,401.81787 c -0.8551,-0.85834 -4.85894,-7.48155 -7.73964,-10.12517 0,0 -2.54288,-2.55792 -4.07134,-0.8684 -1.52846,1.68952 1.25755,5.8751 7.66106,17.30585 0,0 0.10774,0.0577 3.75568,7.24004 z"
         id="path30045"
         sodipodi:nodetypes="ccsccc" />
      <path
         id="rect12730"
         style="opacity:1;fill:#ffb380;stroke:#160a04;stroke-width:9.99999;stroke-linecap:round;stroke-linejoin:round;stroke-miterlimit:4;stroke-dasharray:none;stroke-dashoffset:7.1811;stroke-opacity:1;stop-color:#000000"
         d="m 617.40179,1545.0385 c -7.84837,90.7165 -13.19734,93.4688 3.8056,219.1247 38.60511,149.7248 34.71438,166.7626 79.65894,256.5761 13.24941,26.4765 -23.83474,53.4414 -53.4414,53.4414 -29.60663,0 -75.03575,-26.8633 -79.88027,-56.0709 -16.51692,-99.5803 -36.37548,-87.4486 -53.66503,-261.9484 -6.1873,-66.0412 -7.42853,-138.6891 -0.4633,-219.9856 0,0 -2.88078,-117.7648 -4.31094,-130.643 -1.33171,-11.9917 9.46878,-12.0695 9.59128,-11.9015 0,0 6.58042,-1.4241 8.90281,9.1009 2.10612,9.5448 14.99653,88.392 15.73462,95.39 l 5.84504,-35.8367 c 0,0 1.77797,-12.4929 9.29804,-11.6307 7.25624,0.8318 9.58594,5.4955 9.96741,11.4082 1.1569,17.9318 1.3395,37.4633 1.3395,37.4633 l 5.24188,-42.6715 c 0,0 4.10285,-8.9495 9.8176,-8.976 5.71475,-0.026 9.66113,8.5778 9.66113,8.5778 l 2.14626,44.0108 1.4424,-33.7897 c 0,0 1.95329,-9.5686 9.34539,-9.2831 7.39211,0.2856 10.475,14.1827 10.475,14.1827 0,0 2.21206,38.4137 -0.51196,73.4612 z"
         transform="scale(0.26458333)"
         sodipodi:nodetypes="ccsssccscsccssccccccscc" />
      <path
         style="fill:#001c45;fill-opacity:1;stroke:#130031;stroke-width:2.82804;stroke-linecap:round;stroke-linejoin:round;stroke-dashoffset:7.1811;stroke-opacity:1;stop-color:#000000"
         d="m 267.51102,452.19617 c -43.76714,0 -75.84725,28.73182 -81.83744,71.11986 h 165.54791 c -6.8111,-41.27791 -41.12419,-71.11986 -83.71047,-71.11986 z"
         id="rect1733" />
      <path
         style="fill:#ffb380;fill-opacity:1;stroke:#160a04;stroke-width:2.64583;stroke-linecap:round;stroke-linejoin:round;stroke-miterlimit:4;stroke-dasharray:none;stroke-opacity:1"
         d="m 295.8012,377.00785 -52.63474,-2.67632 c 6.14349,21.43883 16.30157,45.98601 4.71213,83.0239 12.17874,8.30245 24.18299,6.74914 36.3694,0.052 -18.19765,-38.47123 5.13471,-58.28994 11.55325,-80.3995 z"
         id="path2113"
         sodipodi:nodetypes="cccccc" />
      <path
         style="opacity:0.141671;mix-blend-mode:multiply;fill:#c08e69;fill-opacity:1;stroke:none;stroke-width:0.264583px;stroke-linecap:butt;stroke-linejoin:miter;stroke-opacity:1"
         d="m 254.1954,432.16151 -0.59673,5.15582 c 0,0 12.04183,3.01528 22.89557,-0.97932 0,0 -0.70775,-4.27997 -0.38986,-7.01184 z"
         id="path70698" />
      <path
         id="path3538"
         style="fill:#ffb380;stroke:#160a04;stroke-width:2.64583;stroke-linecap:round;stroke-linejoin:round;stroke-dashoffset:7.1811;stroke-opacity:1;stop-color:#000000"
         d="m 355.32604,338.30849 a 17.497379,17.497379 0 0 1 -17.46424,17.49734 17.497379,17.497379 0 0 1 -17.53039,-17.43108 17.497379,17.497379 0 0 1 17.39785,-17.56336 17.497379,17.497379 0 0 1 17.59628,17.36456" />
      <path
         id="path32793"
         style="fill:#ffb380;stroke:#160a04;stroke-width:2.64583;stroke-linecap:round;stroke-linejoin:round;stroke-dashoffset:7.1811;stroke-opacity:1;stop-color:#000000"
         d="m 205.03402,336.83266 a 17.497379,17.497379 0 0 1 -17.46425,17.49734 17.497379,17.497379 0 0 1 -17.53038,-17.43108 17.497379,17.497379 0 0 1 17.39785,-17.56336 17.497379,17.497379 0 0 1 17.59628,17.36456" />
      <path
         id="rect1075"
         style="fill:#ffb380;stroke:#160a04;stroke-width:2.424;stroke-linecap:round;stroke-linejoin:round;stroke-dashoffset:7.1811;stroke-opacity:1;stop-color:#000000"
         d="m 259.24044,214.63644 c 41.918,0 75.66426,42.80295 75.66426,95.97074 v 24.72836 c 0,53.16779 -33.74626,95.97073 -75.66426,95.97073 -19.46898,0 -37.17518,-9.23335 -50.55626,-24.45005 -15.42925,-17.54584 -25.10799,-43.04689 -25.10799,-71.52068 v -24.72836 c 0,-53.16779 33.74626,-95.97074 75.66425,-95.97074 z"
         sodipodi:nodetypes="ssssssss" />
      <path
         style="opacity:1;fill:#000000;stroke:#000000;stroke-width:0;stroke-linecap:round;stroke-linejoin:round;stroke-miterlimit:4;stroke-dasharray:none;stroke-dashoffset:7.1811;stop-color:#000000"
         id="path9524"
         sodipodi:type="arc"
         sodipodi:cx="-226.84633"
         sodipodi:cy="342.49466"
         sodipodi:rx="6.5989952"
         sodipodi:ry="6.5989952"
         sodipodi:start="0"
         sodipodi:end="6.2756106"
         sodipodi:open="true"
         sodipodi:arc-type="arc"
         transform="scale(-1,1)"
         d="m -220.24733,342.49466 a 6.5989952,6.5989952 0 0 1 -6.5865,6.59898 6.5989952,6.5989952 0 0 1 -6.61145,-6.57399 6.5989952,6.5989952 0 0 1 6.56146,-6.62388 6.5989952,6.5989952 0 0 1 6.6363,6.5489" />
      <path
         style="display:inline;opacity:0.141671;mix-blend-mode:multiply;fill:#0b2228;stroke:none;stroke-width:0.264583px;stroke-linecap:butt;stroke-linejoin:miter;stroke-opacity:1"
         d="m 329.96774,329.9349 c 0,0 -70.12312,-17.0693 -91.25022,-42.3281 0,0 -26.25744,26.38352 -50.00613,27.77884 l 0.9799,-37.91646 59.43649,-19.92814 62.34343,20.0833 z"
         id="path68169" />
      <path
         style="fill:#371600;fill-opacity:1;stroke:#2b1100;stroke-width:2.64583;stroke-linecap:butt;stroke-linejoin:miter;stroke-miterlimit:4;stroke-dasharray:none;stroke-opacity:1"
         d="m 194.03542,241.13289 c -22.73905,20.35509 -22.507,49.42671 -20.74283,63.57164 0.58148,4.6622 5.31593,8.12967 9.94583,7.32424 33.01334,-5.7431 50.7811,-28.71694 56.76933,-38.07587 1.37942,-2.15588 0.83741,-5.42629 -1.02044,-7.18814 l -25.774,-24.44234 c -5.02688,-4.76715 -14.0233,-5.80371 -19.17789,-1.18953 z"
         id="path10124"
         sodipodi:nodetypes="cccc" />
      <path
         style="fill:#371600;fill-opacity:1;stroke:#2b1100;stroke-width:2.64583;stroke-linecap:butt;stroke-linejoin:miter;stroke-miterlimit:4;stroke-dasharray:none;stroke-opacity:1"
         d="m 206.97501,242.40032 c 8.69671,15.84709 40.78976,61.34176 132.35542,86.71022 4.38629,1.21523 8.80231,-1.47786 9.72138,-5.93569 6.88097,-33.37548 3.90134,-108.43777 -78.29199,-116.33881 -17.10062,-2.49945 -45.04354,7.42335 -62.3914,25.23279 -2.41018,2.47431 -3.05499,7.30377 -1.39341,10.33149 z"
         id="path9874"
         sodipodi:nodetypes="ccscsc" />
      <path
         style="opacity:1;fill:#000000;stroke:#000000;stroke-width:0;stroke-linecap:round;stroke-linejoin:round;stroke-miterlimit:4;stroke-dasharray:none;stroke-dashoffset:7.1811;stop-color:#000000"
         id="path4568"
         sodipodi:type="arc"
         sodipodi:cx="288.33325"
         sodipodi:cy="343.65585"
         sodipodi:rx="6.5989952"
         sodipodi:ry="6.5989952"
         sodipodi:start="0"
         sodipodi:end="6.2756106"
         sodipodi:open="true"
         sodipodi:arc-type="arc"
         d="m 294.93225,343.65585 a 6.5989952,6.5989952 0 0 1 -6.5865,6.59899 6.5989952,6.5989952 0 0 1 -6.61145,-6.57399 6.5989952,6.5989952 0 0 1 6.56146,-6.62389 6.5989952,6.5989952 0 0 1 6.6363,6.54891" />
      <rect
         style="fill:#341500;fill-opacity:1;stroke:#341500;stroke-width:1.60289;stroke-linecap:round;stroke-linejoin:round;stroke-miterlimit:4;stroke-dasharray:none;stroke-dashoffset:7.1811;stroke-opacity:1;stop-color:#000000"
         id="rect5114"
         width="24.820549"
         height="6.0699019"
         x="306.84543"
         y="296.4155"
         ry="3.034951"
         transform="rotate(5.4746262)" />
      <rect
         style="fill:#341500;fill-opacity:1;stroke:#341500;stroke-width:1.60289;stroke-linecap:round;stroke-linejoin:round;stroke-miterlimit:4;stroke-dasharray:none;stroke-dashoffset:7.1811;stroke-opacity:1;stop-color:#000000"
         id="rect11656"
         width="24.820549"
         height="6.0699019"
         x="-192.89598"
         y="350.90451"
         ry="3.034951"
         transform="matrix(-0.99212705,0.12523544,0.12523544,0.99212705,0,0)" />
      <path
         style="fill:none;stroke:#341500;stroke-width:2.64583;stroke-linecap:round;stroke-linejoin:miter;stroke-miterlimit:4;stroke-dasharray:none;stroke-opacity:1"
         d="m 242.27173,385.10632 c 9.45045,9.00608 17.92014,6.22574 26.06464,-0.46281"
         id="path17252"
         sodipodi:nodetypes="cc" />
      <g
         id="g11806">
        <path
           style="fill:none;stroke:#87decd;stroke-width:2.64583;stroke-linecap:round;stroke-linejoin:round;stroke-miterlimit:4;stroke-dasharray:none;stroke-opacity:1"
           d="m 258.23249,505.26863 -6.69511,6.80118 v -19.48529 l 18.71232,18.71234 v -17.27589 l -4.32623,4.32623"
           id="path3330"
           sodipodi:nodetypes="cccccc" />
        <path
           style="fill:#001c45;fill-opacity:1;stroke:#afe9dd;stroke-width:2.64583;stroke-linecap:round;stroke-linejoin:round;stroke-miterlimit:4;stroke-dasharray:none;stroke-opacity:1"
           d="m 251.08435,515.89215 h 5.54731"
           id="path3753" />
        <path
           style="fill:#001c45;fill-opacity:1;stroke:#afe9dd;stroke-width:2.48896;stroke-linecap:round;stroke-linejoin:round;stroke-miterlimit:4;stroke-dasharray:none;stroke-opacity:1"
           d="m 261.36065,515.76022 h 8.74033"
           id="path3755" />
      </g>
    </g>
  </g>
</svg>
