<?xml version="1.0" encoding="UTF-8" standalone="no"?>
<!-- Created with Inkscape (http://www.inkscape.org/) -->

<svg
   width="65"
   height="65"
   viewBox="0 0 17.197917 17.197917"
   version="1.1"
   id="svg5"
   xmlns:xlink="http://www.w3.org/1999/xlink"
   xmlns="http://www.w3.org/2000/svg"
   xmlns:svg="http://www.w3.org/2000/svg">
  <defs
     id="defs2">
    <color-profile
       name="sRGB"
       xlink:href="file:///usr/share/color/icc/colord/sRGB.icc"
       id="color-profile3588" />
    <clipPath
       clipPathUnits="userSpaceOnUse"
       id="clipPath135354">
      <path
         id="path135356"
         style="opacity:1;vector-effect:none;fill:#ffffff;stroke-width:0.121859;stop-color:#000000;stop-opacity:1"
         d="m 385.74177,111.17147 h 41.19862 c 4.12591,0 7.44746,3.32157 7.44746,7.44746 v 41.19862 c 0,4.12589 -3.32155,7.44746 -7.44746,7.44746 h -41.19862 c -4.12588,0 -7.44746,-3.32157 -7.44746,-7.44746 v -41.19862 c 0,-4.12589 3.32158,-7.44746 7.44746,-7.44746 z" />
    </clipPath>
    <clipPath
       clipPathUnits="userSpaceOnUse"
       id="clipPath135712">
      <path
         id="path135714"
         style="opacity:1;vector-effect:none;fill:#ffffff;stroke-width:3.7007;stop-color:#000000;stop-opacity:1"
         d="m 286.07285,94.083963 h 56.09354 v 56.093547 h -56.09354 z" />
    </clipPath>
  </defs>
  <g
     id="layer1"
     transform="translate(-15.702216,1.4081386)"
     style="display:inline">
    <g
       id="g149438"
       transform="matrix(0.26836005,8.2158128e-4,-8.2158128e-4,0.26836005,-93.702045,-47.243985)">
      <rect
         style="font-variation-settings:normal;opacity:1;vector-effect:none;fill:#222222;fill-opacity:1;stroke:none;stroke-width:1.88835;stroke-linecap:butt;stroke-linejoin:miter;stroke-miterlimit:4;stroke-dasharray:none;stroke-dashoffset:0;stroke-opacity:1;-inkscape-stroke:none;stop-color:#000000;stop-opacity:1"
         id="rect142032"
         width="56.093517"
         height="56.093548"
         x="412.28989"
         y="173.44757"
         ry="11.02935" />
      <path
         fill="currentColor"
         d="m 451.09497,195.51954 c -0.35815,-0.13644 -0.71633,-0.26529 -1.07449,-0.38657 0.0597,-0.28045 0.11276,-0.56091 0.16581,-0.84137 0.81583,-4.5176 0.27858,-8.14837 -1.53216,-9.34599 -1.74442,-1.14456 -4.58987,0.0455 -7.46848,2.91067 -0.2852,0.28046 -0.5638,0.57608 -0.82909,0.87169 -0.1791,-0.19708 -0.36481,-0.39416 -0.55054,-0.58365 -3.01789,-3.06228 -6.04243,-4.35085 -7.85316,-3.14565 -1.73779,1.15214 -2.25516,4.57067 -1.52553,8.84572 0.0729,0.42447 0.15254,0.84137 0.24539,1.26584 -0.42449,0.13644 -0.84235,0.28803 -1.23367,0.44721 -3.54191,1.40228 -6.08224,3.61561 -6.08224,5.90473 0,2.36493 2.70616,4.73742 6.38735,6.1776 0.29846,0.1137 0.59693,0.2274 0.90204,0.32594 -0.0995,0.45479 -0.18571,0.90201 -0.2653,1.36438 -0.69646,4.20683 -0.15257,7.54198 1.58522,8.68654 1.79083,1.18247 4.80211,-0.0303 7.73379,-2.96373 0.23216,-0.23498 0.46429,-0.47753 0.69643,-0.73525 0.29185,0.32594 0.59696,0.63671 0.90207,0.93991 2.8388,2.78939 5.64446,3.91879 7.37561,2.77424 1.79085,-1.18247 2.37452,-4.76775 1.61841,-9.13376 -0.0597,-0.33352 -0.12603,-0.67462 -0.199,-1.02329 0.21225,-0.0682 0.41787,-0.14402 0.62348,-0.21982 3.82711,-1.44776 6.59958,-3.78994 6.59958,-6.19276 0,-2.2967 -2.61328,-4.52519 -6.22152,-5.94263 z m -8.97411,-6.43531 c 2.46739,-2.45589 4.76894,-3.41853 5.81694,-2.72876 1.12092,0.73525 1.55205,3.70656 0.84897,7.6102 -0.0464,0.25771 -0.0928,0.50785 -0.15254,0.75798 -1.47248,-0.37899 -2.96485,-0.65187 -4.46385,-0.80346 -0.86227,-1.40986 -1.80409,-2.75908 -2.82554,-4.02492 0.25868,-0.28045 0.51072,-0.54575 0.77602,-0.81104 z m -7.6741,16.3119 c 0.33828,0.65945 0.68317,1.3189 1.04798,1.96318 -1.03471,-0.12885 -2.06278,-0.31834 -3.07759,-0.56848 0.29183,-1.09151 0.65663,-2.22091 1.08114,-3.37305 0.30511,0.66703 0.61684,1.32648 0.94847,1.97835 z m -2.00973,-9.1186 c 0.95512,-0.24255 1.96995,-0.43963 3.02454,-0.59123 -0.35154,0.62913 -0.69643,1.27342 -1.02142,1.92529 -0.32502,0.64429 -0.64339,1.30374 -0.94186,1.97077 -0.41787,-1.1294 -0.76941,-2.23607 -1.06126,-3.30483 z m 1.81738,5.22254 c 0.43778,-1.04603 0.91534,-2.06931 1.41941,-3.07744 0.50409,-1.00811 1.04798,-1.98592 1.61839,-2.94857 0.99493,-0.0834 2.00973,-0.12885 3.04444,-0.12885 1.03471,0 2.05616,0.0455 3.04444,0.12885 0.56377,0.95507 1.10104,1.93288 1.61177,2.93342 0.51072,1.00054 0.98828,2.02383 1.43929,3.06227 -0.44439,1.04602 -0.92195,2.07689 -1.43267,3.09259 -0.50409,1.00812 -1.04134,1.98593 -1.60513,2.95616 -0.98828,0.0834 -2.01635,0.12127 -3.0577,0.12127 -1.04133,0 -2.04951,-0.0379 -3.02453,-0.10611 -0.57706,-0.96265 -1.12093,-1.94803 -1.63165,-2.95616 -0.51072,-1.00812 -0.98167,-2.03141 -1.42606,-3.07743 z m 11.97877,3.8809 c 0.33825,-0.66703 0.65662,-1.34164 0.96838,-2.02383 0.42448,1.09908 0.79593,2.21332 1.12092,3.35789 -1.02807,0.26529 -2.06942,0.46995 -3.11739,0.60639 0.35818,-0.63671 0.69646,-1.28858 1.02809,-1.94045 z m 0.95511,-5.79861 c -0.31175,-0.66703 -0.63012,-1.33406 -0.96175,-1.98593 -0.32499,-0.64429 -0.66327,-1.281 -1.01481,-1.91013 1.06788,0.1516 2.08933,0.35626 3.04444,0.60639 -0.30511,1.12183 -0.66329,2.21333 -1.06788,3.28967 z m -6.83838,-8.52737 c 0.69646,0.86411 1.35308,1.7737 1.96331,2.7136 -1.31331,-0.0682 -2.63322,-0.0682 -3.94649,0 0.65,-0.9778 1.31991,-1.88739 1.98318,-2.7136 z m -7.69398,-4.64646 c 1.1143,-0.74283 3.58831,0.31835 6.19497,2.95615 0.16583,0.16676 0.33167,0.34867 0.50411,0.53059 -1.02809,1.26584 -1.97656,2.61506 -2.84545,4.02492 -1.499,0.15159 -2.98475,0.41689 -4.45721,0.7883 -0.0862,-0.38657 -0.15918,-0.78072 -0.23216,-1.17488 -0.62348,-3.66866 -0.21226,-6.43531 0.83574,-7.12508 z m -1.62503,19.98056 c -0.27858,-0.091 -0.55053,-0.1895 -0.82247,-0.29561 -1.41277,-0.50785 -3.01789,-1.31132 -4.17863,-2.36493 -0.66991,-0.53059 -1.12094,-1.34922 -1.24696,-2.26638 0,-1.38712 2.09596,-3.16081 5.1205,-4.36601 0.37806,-0.1516 0.76277,-0.28804 1.14745,-0.41689 0.45103,1.64483 0.99492,3.25935 1.62502,4.8208 -0.63674,1.5842 -1.18725,3.22145 -1.64491,4.88902 z m 7.73379,7.42828 c -1.09439,1.14457 -2.36127,2.05415 -3.74087,2.67571 -0.73624,0.40173 -1.58524,0.43963 -2.34136,0.0985 -1.05462,-0.69734 -1.49237,-3.37304 -0.89543,-6.97349 0.073,-0.42447 0.15257,-0.84895 0.24542,-1.26584 1.48572,0.36383 2.98473,0.61397 4.50364,0.74283 0.87552,1.41744 1.83726,2.77424 2.86535,4.04766 -0.21226,0.23497 -0.42449,0.46237 -0.63675,0.6746 z m 1.62503,-1.8419 c -0.67655,-0.83379 -1.35308,-1.75854 -2.00973,-2.7515 0.63674,0.0303 1.2934,0.0455 1.95666,0.0455 0.68317,0 1.35308,-0.0151 2.01635,-0.053 -0.6102,0.96264 -1.26684,1.87981 -1.96328,2.75908 z m 8.669,2.27396 c -0.0597,0.92475 -0.45766,1.78885 -1.0944,2.37251 -1.05461,0.69734 -3.30312,-0.21224 -5.7307,-2.59233 -0.27858,-0.27287 -0.55715,-0.56848 -0.84236,-0.87168 1.01481,-1.281 1.95002,-2.6378 2.79902,-4.06282 1.51891,-0.14402 3.03118,-0.40931 4.52355,-0.79589 0.0663,0.31078 0.12601,0.62155 0.17908,0.92475 0.325,1.63725 0.37807,3.34273 0.16581,5.02546 z m 1.20716,-8.14837 c -0.18571,0.0682 -0.37142,0.13643 -0.56377,0.19707 -0.4643,-1.65241 -1.03471,-3.26693 -1.69136,-4.83596 0.63674,-1.54629 1.17399,-3.13807 1.62502,-4.76775 0.3449,0.1137 0.67653,0.23498 0.99491,0.35626 3.09086,1.21278 5.25978,3.01679 5.25978,4.39633 0,1.48566 -2.31484,3.40336 -5.62458,4.65405 z m -9.92923,-1.13698 c 1.6781,0 3.0378,-1.55388 3.0378,-3.47159 0,-1.91771 -1.3597,-3.47159 -3.0378,-3.47159 -1.67807,0 -3.0378,1.55388 -3.0378,3.47159 0,1.91771 1.35973,3.47159 3.0378,3.47159 z"
         id="path81089"
         style="fill:#5dceeb;fill-opacity:1;stroke-width:0.0709052" />
    </g>
  </g>
  <g
     id="layer2" />
</svg>
