<?xml version="1.0" encoding="UTF-8" standalone="no"?>
<!-- Created with Inkscape (http://www.inkscape.org/) -->

<svg
   width="65"
   height="65"
   viewBox="0 0 17.197917 17.197917"
   version="1.1"
   id="svg5"
   xmlns:xlink="http://www.w3.org/1999/xlink"
   xmlns="http://www.w3.org/2000/svg"
   xmlns:svg="http://www.w3.org/2000/svg">
  <defs
     id="defs2">
    <color-profile
       name="sRGB"
       xlink:href="file:///usr/share/color/icc/colord/sRGB.icc"
       id="color-profile3966" />
    <clipPath
       clipPathUnits="userSpaceOnUse"
       id="clipPath135354">
      <path
         id="path135356"
         style="opacity:1;vector-effect:none;fill:#ffffff;stroke-width:0.121859;stop-color:#000000;stop-opacity:1"
         d="m 385.74177,111.17147 h 41.19862 c 4.12591,0 7.44746,3.32157 7.44746,7.44746 v 41.19862 c 0,4.12589 -3.32155,7.44746 -7.44746,7.44746 h -41.19862 c -4.12588,0 -7.44746,-3.32157 -7.44746,-7.44746 v -41.19862 c 0,-4.12589 3.32158,-7.44746 7.44746,-7.44746 z" />
    </clipPath>
    <clipPath
       clipPathUnits="userSpaceOnUse"
       id="clipPath135712">
      <path
         id="path135714"
         style="opacity:1;vector-effect:none;fill:#ffffff;stroke-width:3.7007;stop-color:#000000;stop-opacity:1"
         d="m 286.07285,94.083963 h 56.09354 v 56.093547 h -56.09354 z" />
    </clipPath>
  </defs>
  <g
     id="layer1"
     transform="translate(-15.702216,1.4081386)"
     style="display:inline">
    <g
       id="g164764"
       transform="matrix(0.26765727,-0.0015993,0.0015993,0.26765727,-54.949433,-65.532764)">
      <g
         id="g141984"
         transform="matrix(0.69985007,0.00418173,-0.00418173,0.69985043,8.2936291,149.67105)">
        <path
           style="font-variation-settings:normal;opacity:1;vector-effect:none;fill:#ff00ff;fill-opacity:1;stroke:none;stroke-width:10.6088;stroke-linecap:butt;stroke-linejoin:miter;stroke-miterlimit:4;stroke-dasharray:none;stroke-dashoffset:0;stroke-opacity:1;-inkscape-stroke:none;stop-color:#000000;stop-opacity:1"
           id="path136171"
           d="m 450.18696,174.4348 a 40.253887,40.253887 0 0 1 -40.17766,40.25381 40.253887,40.253887 0 0 1 -40.32982,-40.10136 40.253887,40.253887 0 0 1 40.02491,-40.40569 40.253887,40.253887 0 0 1 40.48142,39.94833" />
        <path
           fill="currentColor"
           d="m 411.75709,183.30154 c -0.0262,0.0701 -0.0526,0.1262 0,0 z m 21.83551,-10.16612 a 11.495775,15.326312 0 0 0 -5.08354,1.5775 c -0.51711,-1.39054 -1.05177,-2.6058 -1.13942,-3.51725 -0.10518,-1.06335 -0.2191,-1.69435 -0.0964,-2.95635 0.1227,-1.26201 0.67489,-3.04984 0.66611,-3.17838 -0.009,-0.12854 -0.1227,-0.77122 -1.25334,-0.78291 -1.13064,-0.0117 -2.10353,0.29213 -2.21659,0.68943 a 10.765676,14.352935 0 0 0 -0.46453,2.23187 c -0.20157,1.36717 -2.26041,6.25158 -3.42613,8.79896 -0.38562,-0.99324 -0.70993,-1.86963 -0.78006,-2.57074 -0.10518,-1.06336 -0.2191,-1.69436 -0.0964,-2.95636 0.1227,-1.262 0.67489,-3.04984 0.66611,-3.17838 -0.009,-0.12853 -0.1227,-0.77122 -1.25248,-0.78291 -1.12974,-0.0117 -2.10353,0.29213 -2.21745,0.68943 -0.11395,0.3973 -0.23665,1.33212 -0.46453,2.23188 -0.22788,0.89976 -2.97035,9.03266 -3.6882,11.14768 -0.3681,1.07504 -0.68363,1.93974 -0.9115,2.524 -0.0351,0.0935 -0.0614,0.15191 -0.0789,0.19865 0.0262,-0.0584 0.0438,-0.11685 0.0438,-0.0935 -0.19283,0.50246 -0.30675,0.78291 -0.30675,0.78291 v 0.0117 c -0.14901,0.37393 -0.31553,0.7128 -0.39441,0.7128 -0.0526,0 -0.16656,-0.98156 0.0262,-2.32536 0.41196,-2.82782 1.38482,-7.22145 1.37607,-7.37336 -0.009,-0.0818 0.18405,-0.84133 -0.63983,-1.25032 -0.79759,-0.38561 -1.08681,0.25708 -1.15694,0.25708 -0.0701,0 -0.1227,0.2337 -0.1227,0.2337 0,0 0.88523,-4.95452 -1.69949,-4.95452 -1.61269,0 -3.85644,2.36041 -4.95905,4.4988 -0.69241,0.50244 -2.19118,1.58917 -3.76883,2.746 -0.60475,0.44404 -1.22703,0.89976 -1.81426,1.33212 -0.0438,-0.0584 -0.0789,-0.11685 -0.12274,-0.17528 -3.13687,-4.46375 -8.92859,-7.61875 -8.68316,-13.61326 0.0877,-2.18514 0.65733,-7.92257 11.1373,-14.88695 8.58938,-5.70238 15.45652,-4.13656 16.6389,-0.65437 1.70034,4.96621 -3.67154,14.20921 -12.59139,15.54132 -3.39982,0.50246 -5.18693,-1.25032 -5.63394,-1.90469 -0.46453,-0.68943 -0.53462,-0.72448 -0.70993,-0.59594 -0.28922,0.21033 -0.10517,0.81796 0,1.1802 0.26293,0.92313 1.35852,2.55906 3.22453,3.37703 1.63899,0.71279 5.62519,1.11009 10.44489,-1.37886 5.41484,-2.78108 9.62978,-10.52837 8.39397,-17.01366 -1.25864,-6.59045 -9.45538,-8.75221 -17.206,-5.08306 -4.61812,2.18513 -9.61225,5.62058 -13.20488,10.09601 -4.26754,5.32846 -4.95031,9.96748 -4.66983,11.90723 0.9983,6.88258 8.11349,11.3697 10.96113,14.6883 -0.14025,0.10517 -0.2717,0.19865 -0.39443,0.29213 -1.42775,0.9465 -6.85223,4.7325 -8.20989,8.72884 -1.53382,4.53387 0.25418,7.78235 1.42779,8.22639 3.66275,1.35548 7.41316,-1.08673 9.42817,-5.09475 2.01501,-4.00802 1.77047,-9.24299 0.84141,-11.62678 -0.009,-0.0351 -0.0262,-0.0584 -0.035,-0.0935 0.3681,-0.29213 0.74498,-0.58426 1.12186,-0.87639 0.72659,-0.57257 1.43656,-1.09841 2.05884,-1.55413 -0.35058,1.262 -0.60476,2.78108 -0.73624,4.9779 -0.15774,2.57074 0.63984,5.90102 1.67408,7.20977 0.45575,0.57257 1.00704,0.58425 1.34887,0.58425 1.20951,0 1.75295,-1.33211 2.35681,-2.9213 0.74502,-1.93974 1.40238,-4.19498 1.40238,-4.19498 0,0 -0.82389,6.09967 1.42864,6.09967 0.82299,0 1.64688,-1.41391 2.01588,-2.13839 v 0.0117 c 0,0 0.0176,-0.0467 0.0614,-0.14022 0.0876,-0.17528 0.13147,-0.28044 0.13147,-0.28044 v -0.0351 c 0.33306,-0.75954 1.06051,-2.50064 2.15524,-5.3752 1.41987,-3.71589 2.77752,-8.35491 2.77752,-8.35491 a 17.638074,23.515302 0 0 0 0.54341,3.01478 c 0.24543,1.11009 0.76253,2.32535 1.1745,3.50556 -0.33309,0.60763 -0.53467,0.95818 -0.53467,0.95818 a 0.02717056,0.03622413 0 0 0 0.009,0.0234 c -0.26296,0.4674 -0.56096,0.96987 -0.86771,1.46065 -1.121,1.77614 -2.45411,3.80937 -2.62942,4.39363 -0.21035,0.68943 -0.15778,1.20358 0.2454,1.60087 0.29801,0.30382 0.82389,0.35056 1.37518,0.29213 1.00794,-0.0935 1.71791,-0.42066 2.0597,-0.631 a 7.2045798,9.6052369 0 0 0 1.76962,-1.23863 c 1.09559,-1.07504 1.76169,-2.61748 1.70034,-4.65071 -0.035,-1.12178 -0.30678,-2.24356 -0.63983,-3.29523 0.0964,-0.18696 0.2016,-0.38561 0.298,-0.58425 1.73453,-3.37703 3.07552,-7.08357 3.07552,-7.08357 a 17.638074,23.515302 0 0 0 0.54344,3.01478 c 0.21036,0.9465 0.62142,1.98648 0.9983,3.0031 -1.62936,1.76446 -2.63729,3.80937 -2.9879,5.15317 -0.64858,2.48894 -0.14023,3.61072 0.81511,3.8678 0.42948,0.11685 1.04301,-0.15191 1.49877,-0.40898 a 6.9644273,9.2850624 0 0 0 1.89231,-1.29706 c 1.09559,-1.07504 2.15524,-2.58243 2.08511,-4.62734 -0.0262,-0.92313 -0.2191,-1.84626 -0.47328,-2.73434 1.37604,-0.77122 3.16318,-1.19189 5.44197,-0.84133 4.88019,0.75954 5.83555,4.82599 5.6515,6.52034 -0.18408,1.69436 -1.20954,2.64086 -1.55137,2.9213 -0.3418,0.28045 -0.44698,0.38561 -0.42071,0.59595 0.0438,0.30381 0.20161,0.29213 0.49084,0.22202 0.40318,-0.0935 2.55841,-1.37886 2.65481,-4.52217 0.14026,-3.97298 -2.72494,-8.34324 -7.80057,-8.30818 z m -37.61633,16.90848 c -1.61183,2.34873 -3.87311,3.2368 -4.84513,2.48895 -1.04299,-0.80862 -0.63106,-4.2651 1.35765,-6.76807 1.20954,-1.51907 2.76877,-2.9213 3.80301,-3.786 0.23665,-0.18697 0.57845,-0.46741 0.99916,-0.80628 0.0701,-0.0584 0.10517,-0.0818 0.10517,-0.0818 0.0789,-0.0701 0.16656,-0.12854 0.25418,-0.19865 0.7266,3.5523 0.0262,6.68394 -1.67404,9.14951 z m 11.77624,-10.68027 c -0.56093,1.83458 -1.74331,6.50866 -2.46199,6.26327 -0.61353,-0.21034 -0.99041,-3.77432 -0.12273,-7.27988 0.43826,-1.76447 1.36729,-3.86781 1.91947,-4.68577 0.88438,-1.32043 1.85724,-1.7411 2.08515,-1.21526 0.30675,0.68943 -1.06932,5.77249 -1.4199,6.91764 z m 9.72883,6.19316 c -0.23665,0.16359 -0.45578,0.26876 -0.56096,0.18696 -0.0789,-0.0584 0.0964,-0.28045 0.0964,-0.28045 0,0 1.21829,-1.74109 1.70035,-2.53569 0.28044,-0.4674 0.60475,-1.01661 0.95447,-1.62424 0,0.0584 0.009,0.11686 0.009,0.18697 -0.0113,2.09165 -1.51805,3.50556 -2.20168,4.06645 z m 7.50081,-2.27862 c -0.1753,-0.16359 -0.149,-0.7128 0.43823,-2.41883 0.22788,-0.66606 0.7529,-1.78784 1.6653,-2.86288 a 3.1710669,4.2277064 0 0 1 0.16653,1.262 c -0.009,2.62917 -1.41987,3.61073 -2.26919,4.01971 z"
           id="path81098"
           style="fill:#ffffff;fill-opacity:1;stroke-width:0.101201" />
      </g>
    </g>
  </g>
  <g
     id="layer2" />
</svg>
