<?xml version="1.0" encoding="UTF-8" standalone="no"?>
<!-- Created with Inkscape (http://www.inkscape.org/) -->

<svg
   width="300"
   height="300"
   viewBox="0 0 79.375 79.375"
   version="1.1"
   id="svg5"
   xmlns:xlink="http://www.w3.org/1999/xlink"
   xmlns="http://www.w3.org/2000/svg"
   xmlns:svg="http://www.w3.org/2000/svg">
  <defs
     id="defs2">
    <color-profile
       name="sRGB"
       xlink:href="file:///usr/share/color/icc/colord/sRGB.icc"
       id="color-profile1857" />
  </defs>
  <g
     id="layer1"
     transform="translate(-15.702216,1.4081386)"
     style="display:inline">
    <g
       id="g39661"
       transform="matrix(0.42090857,0,0,0.42090857,-28.165978,-15.860004)">
      <g
         id="g26780">
        <g
           id="path4711">
          <path
             style="color:#000000;fill:#ffdd55;stroke-width:1.64499;stroke-linecap:round;stroke-linejoin:round;stroke-dashoffset:7.1811;-inkscape-stroke:none"
             d="m 209.74838,99.309734 -6.85828,-4.728036 -6.872,4.708066 a 2.7315572,2.7315572 0 0 1 -4.1618,-3.032982 l 2.37731,-7.983658 -6.60121,-5.080788 a 2.7315573,2.7315573 0 0 1 1.59848,-4.895353 l 8.32753,-0.206133 2.79223,-7.848167 a 2.731557,2.731557 0 0 1 5.14972,0.0075 l 2.76939,7.856258 8.3269,0.230356 a 2.7315571,2.7315571 0 0 1 1.58422,4.899981 l -6.61595,5.061566 2.35407,7.990534 a 2.7315567,2.7315567 0 0 1 -4.17061,3.020864 z"
             id="path39080" />
          <path
             style="color:#000000;fill:#162d50;stroke-linecap:round;stroke-linejoin:round;stroke-dashoffset:7.1811;-inkscape-stroke:none"
             d="m 202.92969,67.603516 c -1.3827,-0.002 -2.80665,0.826188 -3.35352,2.363281 l -2.60351,7.316406 -7.76172,0.191406 c -1.63097,0.04037 -2.86183,1.134819 -3.29102,2.449219 -0.42919,1.314401 -0.0819,2.924834 1.21094,3.919922 l 6.15234,4.736328 -2.21484,7.441406 c -0.4656,1.563619 0.19506,3.072366 1.3125,3.886719 1.11744,0.814357 2.75566,0.982627 4.10156,0.06055 l 6.40625,-4.388672 6.39258,4.40625 c 1.34321,0.925999 2.98175,0.764219 4.10156,-0.04687 1.11981,-0.811099 1.78527,-2.317843 1.32422,-3.882812 l -2.19336,-7.449219 6.16602,-4.716797 c 1.29575,-0.99132 1.64802,-2.600374 1.22265,-3.916016 -0.42536,-1.315641 -1.65236,-2.415818 -3.2832,-2.460937 l -7.76172,-0.212891 -2.58203,-7.324219 c -0.54238,-1.538679 -1.963,-2.371033 -3.3457,-2.373046 z m -0.002,1.646484 c 0.76255,0.0011 1.48357,0.384606 1.79688,1.273437 l 2.76953,7.857422 a 0.82257723,0.82257723 0 0 0 0.75195,0.546875 l 8.32813,0.230469 c 0.94207,0.02606 1.52909,0.596706 1.76367,1.322266 0.23458,0.72556 0.0923,1.530871 -0.65625,2.103515 l -6.61719,5.060547 a 0.82257723,0.82257723 0 0 0 -0.28906,0.886719 l 2.35547,7.990234 c 0.26633,0.904018 -0.0953,1.638626 -0.71289,2.085938 -0.61756,0.447312 -1.42721,0.560304 -2.20313,0.02539 l -6.85742,-4.728515 a 0.82257723,0.82257723 0 0 0 -0.93164,-0.002 l -6.87305,4.708984 c -0.77747,0.53265 -1.58687,0.417856 -2.20312,-0.03125 -0.61625,-0.449106 -0.97404,-1.184654 -0.70508,-2.087891 l 2.37695,-7.984375 a 0.82257723,0.82257723 0 0 0 -0.28711,-0.886718 l -6.5996,-5.080078 c -0.74684,-0.574821 -0.88709,-1.380594 -0.6504,-2.105469 0.2367,-0.724876 0.82544,-1.293088 1.76758,-1.316406 l 8.32617,-0.205079 a 0.82257723,0.82257723 0 0 0 0.75586,-0.546875 l 2.79102,-7.849609 c 0.3159,-0.887915 1.04019,-1.268689 1.80273,-1.267578 z"
             id="path39082" />
        </g>
        <g
           id="path9196">
          <path
             style="color:#000000;fill:#ffdd55;stroke-width:1.64499;stroke-linecap:round;stroke-linejoin:round;stroke-dashoffset:7.1811;-inkscape-stroke:none"
             d="m 253.29778,116.42752 -5.21881,-6.49264 -7.93177,2.54506 a 2.7315572,2.7315572 0 0 1 -3.12004,-4.09695 l 4.56217,-6.96971 -4.87154,-6.757099 a 2.7315573,2.7315573 0 0 1 2.93229,-4.233351 l 8.03838,2.185118 4.92098,-6.721174 a 2.731557,2.731557 0 0 1 4.93229,1.480592 l 0.40582,8.320193 7.91288,2.603181 a 2.7315571,2.7315571 0 0 1 0.11604,5.14841 l -7.78757,2.95704 -0.0305,8.33003 a 2.7315567,2.7315567 0 0 1 -4.86057,1.7013 z"
             id="path39034" />
          <path
             style="color:#000000;fill:#162d50;stroke-linecap:round;stroke-linejoin:round;stroke-dashoffset:7.1811;-inkscape-stroke:none"
             d="m 255.83594,84.095703 c -1.32432,-0.397538 -2.92684,-0.01168 -3.89063,1.304688 l -4.58594,6.265625 -7.49414,-2.03711 c -1.57433,-0.427963 -3.06619,0.269598 -3.85351,1.40625 -0.78732,1.136653 -0.91504,2.778167 0.0391,4.101563 l 4.54102,6.298831 -4.25196,6.49609 c -0.89352,1.36504 -0.6932,3.00153 0.14453,4.10156 0.83774,1.10003 2.36061,1.72894 3.91407,1.23047 l 7.39453,-2.37304 4.86328,6.05273 c 1.02212,1.2716 2.64025,1.58375 3.94531,1.12695 1.30506,-0.4568 2.37292,-1.71034 2.37891,-3.34179 l 0.0293,-7.76368 7.25781,-2.75586 c 1.52521,-0.57914 2.32412,-2.02195 2.29297,-3.40429 -0.0312,-1.382348 -0.8936,-2.785086 -2.44336,-3.294924 l -7.375,-2.427735 -0.37891,-7.753906 c -0.0795,-1.629537 -1.20302,-2.834883 -2.52734,-3.232422 z m -1.58399,1.558594 c 0.36142,-0.107525 0.74421,-0.09204 1.10938,0.01758 0.73034,0.219238 1.31346,0.795012 1.35937,1.736328 l 0.40625,8.320313 a 0.82257723,0.82257723 0 0 0 0.56446,0.740234 l 7.91211,2.603516 c 0.89523,0.294512 1.29531,1.007182 1.3125,1.769532 0.0172,0.76234 -0.35137,1.49357 -1.23243,1.82812 l -7.78711,2.95703 a 0.82257723,0.82257723 0 0 0 -0.52929,0.76563 l -0.0312,8.33008 c -0.003,0.94242 -0.55958,1.543 -1.2793,1.79492 -0.71972,0.25192 -1.52675,0.12908 -2.11719,-0.60547 l -5.21875,-6.49219 a 0.82257723,0.82257723 0 0 0 -0.89258,-0.26758 l -7.93164,2.54493 c -0.89737,0.28794 -1.64151,-0.0555 -2.10351,-0.66211 -0.462,-0.60666 -0.59428,-1.41265 -0.0781,-2.20118 l 4.5625,-6.9707 a 0.82257723,0.82257723 0 0 0 -0.0215,-0.93164 l -4.87109,-6.755857 c -0.55115,-0.764471 -0.45568,-1.576275 -0.0215,-2.203125 0.4342,-0.626849 1.16088,-1.003076 2.07031,-0.755859 l 8.03907,2.185547 a 0.82257723,0.82257723 0 0 0 0.8789,-0.308594 l 4.92188,-6.720703 c 0.27837,-0.380205 0.6171,-0.611226 0.97851,-0.71875 z"
             id="path39036" />
        </g>
        <g
           id="path9198">
          <path
             style="color:#000000;fill:#ffdd55;stroke-width:1.64499;stroke-linecap:round;stroke-linejoin:round;stroke-dashoffset:7.1811;-inkscape-stroke:none"
             d="m 166.05123,111.9406 -8.04983,-2.14254 -4.88534,6.74713 a 2.7315572,2.7315572 0 0 1 -4.94006,-1.45446 l -0.44985,-8.31793 -7.92656,-2.56126 a 2.7315573,2.7315573 0 0 1 -0.14328,-5.147725 l 7.7718,-2.99822 -0.0135,-8.330073 a 2.731557,2.731557 0 0 1 4.85151,-1.727008 l 5.25309,6.464923 7.91819,-2.587009 a 2.7315571,2.7315571 0 0 1 3.14167,4.080375 l -4.52521,6.993767 4.90725,6.73121 a 2.7315567,2.7315567 0 0 1 -2.90984,4.24882 z"
             id="path39088" />
          <path
             style="color:#000000;fill:#162d50;stroke-linecap:round;stroke-linejoin:round;stroke-dashoffset:7.1811;-inkscape-stroke:none"
             d="m 151.03125,84.287109 c -0.69611,-0.176441 -1.42486,-0.136147 -2.07617,0.0957 -1.30263,0.463702 -2.36594,1.722039 -2.36328,3.353516 l 0.0137,7.765625 -7.2461,2.794922 c -1.52213,0.587207 -2.3119,2.031908 -2.27343,3.414068 0.0385,1.38216 0.9085,2.78157 2.46093,3.2832 l 7.38868,2.38672 0.41992,7.75391 c 0.0881,1.62909 1.21852,2.82822 2.54492,3.21875 1.32641,0.39052 2.92601,-0.005 3.88281,-1.32618 l 4.55274,-6.28906 7.5039,1.99805 c 1.57659,0.41963 3.06442,-0.28693 3.84571,-1.42774 0.78129,-1.1408 0.90055,-2.78323 -0.0606,-4.10156 l -4.57422,-6.27344 4.21875,-6.519531 c 0.88627,-1.369745 0.67557,-3.004031 -0.16797,-4.099609 -0.84353,-1.095578 -2.36912,-1.715651 -3.91992,-1.208984 l -7.38086,2.410156 -4.89648,-6.025391 c -0.51442,-0.633094 -1.17694,-1.026683 -1.87305,-1.203125 z m -0.41797,1.572266 c 0.36637,0.0892 0.71652,0.302256 1.01367,0.667969 l 5.25391,6.464843 a 0.82257723,0.82257723 0 0 0 0.89453,0.263672 l 7.91797,-2.58789 c 0.89583,-0.292681 1.64027,0.04619 2.10547,0.65039 0.4652,0.604198 0.6018,1.409928 0.0898,2.201172 l -4.52539,6.994139 a 0.82257723,0.82257723 0 0 0 0.0254,0.93164 l 4.9082,6.73047 c 0.5552,0.76154 0.46213,1.57399 0.0312,2.20313 -0.43087,0.62914 -1.15372,1.00998 -2.06445,0.76757 l -8.05078,-2.14257 a 0.82257723,0.82257723 0 0 0 -0.87695,0.3125 l -4.88672,6.74609 c -0.55271,0.76335 -1.35249,0.92826 -2.08399,0.71289 -0.73149,-0.21537 -1.31629,-0.78745 -1.36718,-1.72851 l -0.45118,-8.31836 a 0.82257723,0.82257723 0 0 0 -0.56835,-0.73829 l -7.92579,-2.56054 c -0.89677,-0.28977 -1.30105,-1.00143 -1.32226,-1.76367 -0.0212,-0.76225 0.34338,-1.49478 1.22265,-1.833989 l 7.77149,-3 A 0.82257723,0.82257723 0 0 0 148.25,96.064453 l -0.0137,-8.330078 c -0.002,-0.942438 0.55114,-1.547008 1.26953,-1.802734 0.35919,-0.127863 0.74105,-0.161461 1.10742,-0.07227 z"
             id="path39090" />
        </g>
        <g
           id="path12184">
          <path
             style="color:#000000;fill:#162d50;stroke-width:2.11146;stroke-linecap:round;stroke-linejoin:round;-inkscape-stroke:none"
             d="m 202.13905,108.5443 v 28.52349"
             id="path39394" />
          <path
             style="color:#000000;fill:#162d50;stroke-linecap:round;stroke-linejoin:round;-inkscape-stroke:none"
             d="m 202.13867,107.48828 a 1.05573,1.05573 0 0 0 -1.05469,1.05664 v 28.52344 a 1.05573,1.05573 0 0 0 1.05469,1.05469 1.05573,1.05573 0 0 0 1.05664,-1.05469 v -28.52344 a 1.05573,1.05573 0 0 0 -1.05664,-1.05664 z"
             id="path39396" />
        </g>
        <g
           id="path12186">
          <path
             style="color:#000000;fill:#162d50;stroke-width:1.61003;stroke-linecap:round;stroke-linejoin:round;-inkscape-stroke:none"
             d="m 197.37359,111.73009 v 15.73552"
             id="path39402" />
          <path
             style="color:#000000;fill:#162d50;stroke-linecap:round;stroke-linejoin:round;-inkscape-stroke:none"
             d="m 197.37305,110.92578 a 0.80501503,0.80501503 0 0 0 -0.80469,0.80469 v 15.73437 a 0.80501503,0.80501503 0 0 0 0.80469,0.80664 0.80501503,0.80501503 0 0 0 0.80468,-0.80664 v -15.73437 a 0.80501503,0.80501503 0 0 0 -0.80468,-0.80469 z"
             id="path39404" />
        </g>
        <g
           id="path12188">
          <path
             style="color:#000000;fill:#162d50;stroke-width:1.81196;stroke-linecap:round;stroke-linejoin:round;-inkscape-stroke:none"
             d="m 207.00247,111.82754 v 20.07755"
             id="path39386" />
          <path
             style="color:#000000;fill:#162d50;stroke-linecap:round;stroke-linejoin:round;-inkscape-stroke:none"
             d="m 207.00195,110.92188 a 0.90597999,0.90597999 0 0 0 -0.90625,0.90625 v 20.07617 a 0.90597999,0.90597999 0 0 0 0.90625,0.90625 0.90597999,0.90597999 0 0 0 0.90625,-0.90625 v -20.07617 a 0.90597999,0.90597999 0 0 0 -0.90625,-0.90625 z"
             id="path39388" />
        </g>
        <g
           id="path26721">
          <path
             style="color:#000000;fill:#162d50;stroke-width:2.11146;stroke-linecap:round;stroke-linejoin:round;-inkscape-stroke:none"
             d="m 160.98804,120.94134 11.30028,26.18956"
             id="path39418" />
          <path
             style="color:#000000;fill:#162d50;stroke-linecap:round;stroke-linejoin:round;-inkscape-stroke:none"
             d="m 161.37695,119.96094 a 1.05573,1.05573 0 0 0 -0.80664,0.0117 1.05573,1.05573 0 0 0 -0.55078,1.38672 l 11.29883,26.18945 a 1.05573,1.05573 0 0 0 1.38867,0.55078 1.05573,1.05573 0 0 0 0.55078,-1.38672 l -11.30078,-26.18945 a 1.05573,1.05573 0 0 0 -0.58008,-0.5625 z"
             id="path39420" />
        </g>
        <g
           id="path26723">
          <path
             style="color:#000000;fill:#162d50;stroke-width:1.61003;stroke-linecap:round;stroke-linejoin:round;-inkscape-stroke:none"
             d="m 157.87464,125.7544 6.23401,14.44797"
             id="path39426" />
          <path
             style="color:#000000;fill:#162d50;stroke-linecap:round;stroke-linejoin:round;-inkscape-stroke:none"
             d="m 157.55664,125.01563 a 0.80501503,0.80501503 0 0 0 -0.42187,1.05859 l 6.23437,14.44726 a 0.80501503,0.80501503 0 0 0 1.05859,0.41993 0.80501503,0.80501503 0 0 0 0.41993,-1.0586 l -6.23438,-14.44726 a 0.80501503,0.80501503 0 0 0 -1.05664,-0.41992 z"
             id="path39428" />
        </g>
        <g
           id="path26725">
          <path
             style="color:#000000;fill:#162d50;stroke-width:1.81196;stroke-linecap:round;stroke-linejoin:round;-inkscape-stroke:none"
             d="m 166.75425,122.02917 7.95421,18.43471"
             id="path39410" />
          <path
             style="color:#000000;fill:#162d50;stroke-linecap:round;stroke-linejoin:round;-inkscape-stroke:none"
             d="m 167.08789,121.1875 a 0.90597999,0.90597999 0 0 0 -0.69336,0.01 0.90597999,0.90597999 0 0 0 -0.47266,1.1914 l 7.95508,18.4336 a 0.90597999,0.90597999 0 0 0 1.19141,0.47265 0.90597999,0.90597999 0 0 0 0.47266,-1.18945 l -7.95508,-18.43555 a 0.90597999,0.90597999 0 0 0 -0.49805,-0.48242 z"
             id="path39412" />
        </g>
        <g
           id="path26727">
          <path
             style="color:#000000;fill:#162d50;stroke-width:2.11146;stroke-linecap:round;stroke-linejoin:round;-inkscape-stroke:none"
             d="m 244.13294,122.11759 -11.30028,26.18956"
             id="path39370" />
          <path
             style="color:#000000;fill:#162d50;stroke-linecap:round;stroke-linejoin:round;-inkscape-stroke:none"
             d="m 244.55078,121.14844 a 1.05573,1.05573 0 0 0 -1.38672,0.55078 l -11.30078,26.18945 a 1.05573,1.05573 0 0 0 0.55078,1.38867 1.05573,1.05573 0 0 0 1.38867,-0.55273 l 11.29883,-26.18945 a 1.05573,1.05573 0 0 0 -0.55078,-1.38672 z"
             id="path39372" />
        </g>
        <g
           id="path26729">
          <path
             style="color:#000000;fill:#162d50;stroke-width:1.61003;stroke-linecap:round;stroke-linejoin:round;-inkscape-stroke:none"
             d="m 247.24634,126.93065 -6.23401,14.44797"
             id="path39362" />
          <path
             style="color:#000000;fill:#162d50;stroke-linecap:round;stroke-linejoin:round;-inkscape-stroke:none"
             d="m 247.56445,126.19141 a 0.80501503,0.80501503 0 0 0 -1.05664,0.41992 l -6.23437,14.44922 a 0.80501503,0.80501503 0 0 0 0.41992,1.05664 0.80501503,0.80501503 0 0 0 1.05859,-0.41992 L 247.98633,127.25 a 0.80501503,0.80501503 0 0 0 -0.42188,-1.05859 z"
             id="path39364" />
        </g>
        <g
           id="path26731">
          <path
             style="color:#000000;fill:#162d50;stroke-width:1.81196;stroke-linecap:round;stroke-linejoin:round;-inkscape-stroke:none"
             d="m 238.36673,123.20542 -7.95421,18.43471"
             id="path39378" />
          <path
             style="color:#000000;fill:#162d50;stroke-linecap:round;stroke-linejoin:round;-inkscape-stroke:none"
             d="m 238.0332,122.36328 a 0.90597999,0.90597999 0 0 0 -0.49804,0.48242 l -7.95508,18.43555 a 0.90597999,0.90597999 0 0 0 0.47265,1.19141 A 0.90597999,0.90597999 0 0 0 231.24414,142 l 7.95508,-18.43555 a 0.90597999,0.90597999 0 0 0 -0.47266,-1.1914 0.90597999,0.90597999 0 0 0 -0.69336,-0.01 z"
             id="path39380" />
        </g>
      </g>
      <g
         id="g26766">
        <g
           id="rect1048">
          <path
             style="color:#000000;fill:#ffa866;stroke-width:2.79216;stroke-linecap:round;stroke-linejoin:round;stroke-dashoffset:7.1811;-inkscape-stroke:none"
             d="m 195.39538,138.50601 c -1.00249,6.04061 -2.72347,19.89927 -8.97597,27.15723 -2.65758,2.0527 -4.36523,5.27011 -4.36523,8.90291 v 28.92311 c 0,6.22852 5.02083,11.53477 11.24255,11.24304 l 38.64573,-1.81207 c 6.22173,-0.29174 11.1802,-3.20245 11.1802,-9.43097 v -28.92311 c 0,-6.22856 -5.01397,-11.24305 -11.24253,-11.24305 h -20.43666 c 1.26914,-6.03586 2.16526,-15.66404 2.32948,-23.40479 0.21312,-10.04667 -4.64304,-12.29252 -9.66445,-12.13078 -5.02141,0.16176 -7.58876,3.94354 -8.71312,10.71848 z"
             id="path38705" />
          <path
             style="color:#000000;fill:#162d50;stroke-linecap:round;stroke-linejoin:round;stroke-dashoffset:7.1811;-inkscape-stroke:none"
             d="m 204.06445,126.39258 c -2.85298,0.0919 -5.24294,1.32007 -6.875,3.41797 -1.63205,2.09789 -2.58846,4.95141 -3.17187,8.46679 -1.0167,6.12625 -2.89464,19.78649 -8.65625,26.47461 l 0.20508,-0.19336 c -2.98714,2.30725 -4.90821,5.93752 -4.90821,10.00782 v 28.92382 c 0,6.97877 5.65515,12.9672 12.70313,12.63672 l 38.64648,-1.8125 c 3.31052,-0.15523 6.37861,-0.99627 8.70508,-2.77539 2.32647,-1.77911 3.80664,-4.5641 3.80664,-8.04883 v -28.92382 c 0,-6.97778 -5.66081,-12.63868 -12.63867,-12.63868 h -18.83008 c 1.14663,-6.18404 1.96365,-14.74342 2.11719,-21.98046 0.11137,-5.25032 -1.11217,-8.76649 -3.28125,-10.91407 -2.16909,-2.14757 -5.08928,-2.72865 -7.82227,-2.64062 z m 0.0899,2.79101 c 2.28842,-0.0737 4.30651,0.38741 5.76757,1.83399 1.46107,1.44657 2.55683,4.07475 2.45508,8.87109 -0.16245,7.65761 -1.06397,17.27369 -2.29883,23.14649 a 1.3962196,1.3962196 0 0 0 1.36524,1.68359 h 20.4375 c 5.47925,0 9.8457,4.36833 9.8457,9.84766 v 28.92382 c 0,2.74379 -1.00079,4.52573 -2.70898,5.83204 -1.70819,1.3063 -4.22942,2.06661 -7.14063,2.20312 l -38.64648,1.8125 c -5.39545,0.25299 -9.7793,-4.3694 -9.7793,-9.84766 v -28.92382 c 0,-3.1953 1.49425,-6.00068 3.82227,-7.79883 a 1.3962196,1.3962196 0 0 0 0.20312,-0.19336 c 6.74338,-7.82778 8.3086,-21.88489 9.29688,-27.83985 0.54095,-3.25955 1.43108,-5.68377 2.61914,-7.21093 1.18806,-1.52717 2.59329,-2.26999 4.76172,-2.33985 z"
             id="path38707" />
        </g>
        <g
           id="rect892">
          <path
             style="color:#000000;fill:#162d50;stroke-width:2.59732;stroke-linecap:round;stroke-linejoin:round;stroke-dashoffset:7.1811;-inkscape-stroke:none"
             d="m 165.28495,165.41492 h 11.92404 c 2.65512,0 4.79264,2.13751 4.79264,4.79263 v 40.4016 c 0,2.65512 -2.13752,4.79263 -4.79264,4.79263 h -11.92404 c -2.65512,0 -4.79264,-2.13751 -4.79264,-4.79263 v -40.4016 c 0,-2.65512 2.13752,-4.79263 4.79264,-4.79263 z"
             id="path38697" />
          <path
             style="color:#000000;fill:#162d50;stroke-linecap:round;stroke-linejoin:round;stroke-dashoffset:7.1811;-inkscape-stroke:none"
             d="m 165.28516,164.11719 c -3.35211,0 -6.0918,2.73773 -6.0918,6.08984 v 40.40234 c 0,3.35212 2.73969,6.0918 6.0918,6.0918 h 11.92382 c 3.35211,0 6.0918,-2.73968 6.0918,-6.0918 v -40.40234 c 0,-3.35211 -2.73969,-6.08984 -6.0918,-6.08984 z m 0,2.5957 h 11.92382 c 1.95813,0 3.49415,1.53602 3.49414,3.49414 v 40.40234 c 0,1.95813 -1.53601,3.49415 -3.49414,3.49415 h -11.92382 c -1.95813,0 -3.49414,-1.53602 -3.49414,-3.49415 v -40.40234 c 0,-1.95812 1.53601,-3.49414 3.49414,-3.49414 z"
             id="path38699" />
        </g>
        <g
           id="rect938">
          <path
             style="color:#000000;fill:#ffa866;stroke-width:2.79274;stroke-linecap:round;stroke-linejoin:round;stroke-dashoffset:7.1811;-inkscape-stroke:none"
             d="m 215.12166,162.9357 25.25441,0.005 c 2.7583,5.1e-4 5.02211,2.22108 5.07583,4.97884 l 0.0754,3.86928 c 0.0537,2.75777 -2.12363,4.97752 -4.88191,4.977 l -25.25441,-0.005 c -2.75829,-5.1e-4 -5.0221,-2.22107 -5.07583,-4.97886 l -0.0754,-3.86926 c -0.0537,-2.75776 2.1236,-4.9775 4.88189,-4.97699 z"
             id="path38865" />
          <path
             style="color:#000000;fill:#162d50;stroke-linecap:round;stroke-linejoin:round;stroke-dashoffset:7.1811;-inkscape-stroke:none"
             d="m 215.12109,161.53906 c -3.50757,-6.5e-4 -6.34563,2.8935 -6.27734,6.40039 l 0.0762,3.86914 c 0.0683,3.50693 2.96313,6.34701 6.4707,6.34766 l 25.25391,0.006 c 3.50758,6.6e-4 6.34759,-2.89348 6.2793,-6.40039 l -0.0762,-3.86914 c -0.0683,-3.50691 -2.96312,-6.34701 -6.47071,-6.34766 z m 0,2.79297 25.25391,0.006 c 2.00901,3.7e-4 3.64251,1.60076 3.68164,3.60938 l 0.0742,3.86914 c 0.0391,2.00862 -1.4754,3.55311 -3.48438,3.55273 l -25.25586,-0.004 c -2.00899,-3.7e-4 -3.64055,-1.60267 -3.67968,-3.61132 l -0.0742,-3.86914 c -0.0391,-2.00863 1.47538,-3.55311 3.48437,-3.55274 z"
             id="path38867" />
        </g>
        <g
           id="rect1020">
          <path
             style="color:#000000;fill:#ffa866;stroke-width:3.20205;stroke-linecap:round;stroke-linejoin:round;stroke-dashoffset:7.1811;-inkscape-stroke:none"
             d="m 211.50463,176.4587 29.46132,-0.92115 c 3.00808,-0.0941 5.56193,2.37491 5.72612,5.53577 l 0.23036,4.43487 c 0.16419,3.16088 -2.12528,5.78127 -5.13337,5.87532 l -29.46131,0.92114 c -3.00808,0.0941 -5.56194,-2.3749 -5.72611,-5.53578 l -0.23037,-4.43486 c -0.16419,-3.16087 2.12528,-5.78127 5.13336,-5.87531 z"
             id="path38873" />
          <path
             style="color:#000000;fill:#162d50;stroke-linecap:round;stroke-linejoin:round;stroke-dashoffset:7.1811;-inkscape-stroke:none"
             d="m 240.91602,173.9375 -29.46094,0.92187 c -3.91115,0.12228 -6.89016,3.58197 -6.6836,7.5586 l 0.23047,4.43359 c 0.20654,3.97665 3.46384,7.17509 7.375,7.05274 l 29.46289,-0.91993 c 3.91115,-0.12228 6.88821,-3.58196 6.68164,-7.55859 l -0.23046,-4.43555 c -0.20657,-3.97662 -3.46383,-7.17508 -7.375,-7.05273 z m 0.0996,3.20117 c 2.10499,-0.0658 3.95631,1.67249 4.07813,4.01758 l 0.23047,4.43555 c 0.12181,2.34512 -1.48091,4.12559 -3.58594,4.1914 l -29.46094,0.92188 c -2.10498,0.0658 -3.95437,-1.67443 -4.07617,-4.01953 L 207.9707,182.25 c -0.12181,-2.34511 1.47898,-4.1256 3.58399,-4.19141 z"
             id="path38875" />
        </g>
        <g
           id="rect1024">
          <path
             style="color:#000000;fill:#ffa866;stroke-width:2.39983;stroke-linecap:round;stroke-linejoin:round;stroke-dashoffset:7.1811;-inkscape-stroke:none"
             d="m 218.01068,201.81801 20.12188,-0.435 c 2.0545,-0.0445 3.77781,2.0145 3.86394,4.61635 l 0.12084,3.65058 c 0.0862,2.60188 -1.49851,4.7323 -3.553,4.77671 l -20.12189,0.43498 c -2.0545,0.0445 -3.77782,-2.01448 -3.86395,-4.61635 l -0.12084,-3.65058 c -0.0862,-2.60188 1.49852,-4.73228 3.55302,-4.77669 z"
             id="path38889" />
          <path
             style="color:#000000;fill:#162d50;stroke-linecap:round;stroke-linejoin:round;stroke-dashoffset:7.1811;-inkscape-stroke:none"
             d="m 238.10742,200.18359 -20.12305,0.43555 c -1.43504,0.031 -2.69349,0.80685 -3.51562,1.91211 -0.82213,1.10526 -1.26245,2.54854 -1.21094,4.10352 l 0.1211,3.65039 c 0.10294,3.10991 2.2197,5.83755 5.08984,5.77539 l 20.12109,-0.4336 c 1.43505,-0.031 2.6935,-0.80879 3.51563,-1.91406 0.82213,-1.10527 1.26245,-2.54854 1.21094,-4.10352 l -0.1211,-3.65039 c -0.10295,-3.10989 -2.21774,-5.83755 -5.08789,-5.77539 z m 0.0508,2.39844 c 1.23885,-0.0268 2.56936,1.36323 2.63867,3.45703 l 0.1211,3.65039 c 0.0347,1.0469 -0.27403,1.97028 -0.73633,2.5918 -0.4623,0.62152 -1.02313,0.93192 -1.64258,0.94531 l -20.12304,0.43555 c -1.23886,0.0268 -2.56936,-1.36321 -2.63868,-3.45703 l -0.12109,-3.65039 c -0.0347,-1.0469 0.27598,-1.97029 0.73828,-2.5918 0.4623,-0.62151 1.02312,-0.93192 1.64258,-0.94531 z"
             id="path38891" />
        </g>
        <g
           id="rect1022">
          <path
             style="color:#000000;fill:#ffa866;stroke-width:2.86151;stroke-linecap:round;stroke-linejoin:round;stroke-dashoffset:7.1811;-inkscape-stroke:none"
             d="m 214.31094,191.92428 26.9979,-0.94752 c 2.75656,-0.0967 5.10879,2.04191 5.27406,4.79522 l 0.23189,3.86301 c 0.16526,2.75329 -1.92087,5.04774 -4.67743,5.14448 l -26.99792,0.94752 c -2.75655,0.0968 -5.10878,-2.04193 -5.27404,-4.79522 l -0.23188,-3.86301 c -0.16527,-2.7533 1.92086,-5.04774 4.67742,-5.14448 z"
             id="path38881" />
          <path
             style="color:#000000;fill:#162d50;stroke-linecap:round;stroke-linejoin:round;stroke-dashoffset:7.1811;-inkscape-stroke:none"
             d="m 241.25781,189.54687 -26.99609,0.94727 c -3.52374,0.12366 -6.26791,3.14059 -6.05664,6.66016 l 0.23242,3.86328 c 0.21125,3.51956 3.22819,6.26241 6.75195,6.13867 l 26.99805,-0.94727 c 3.52374,-0.12366 6.26594,-3.14059 6.05469,-6.66015 l -0.23047,-3.86328 c -0.21127,-3.51958 -3.2302,-6.26229 -6.75391,-6.13868 z m 0.10156,2.85938 c 1.98942,-0.0698 3.67565,1.46414 3.79493,3.45117 l 0.23242,3.86328 c 0.11926,1.98702 -1.30946,3.55909 -3.29883,3.62891 l -26.99805,0.94726 c -1.98933,0.0699 -3.67761,-1.46416 -3.79687,-3.45117 l -0.23047,-3.86328 c -0.11927,-1.98702 1.30945,-3.55909 3.29883,-3.6289 z"
             id="path38883" />
        </g>
      </g>
      <g
         id="g38464">
        <path
           style="color:#000000;fill:#ffff00;-inkscape-stroke:none"
           d="m 167.86133,72.126953 c -2.16419,2.16382 -4.04405,2.866396 -5.35938,3.089844 -1.31532,0.223448 -1.94336,-0.0059 -1.94336,-0.0059 l -0.80468,2.519532 c 0,0 1.3536,0.405624 3.18945,0.09375 1.83585,-0.311875 4.27607,-1.313611 6.78906,-3.826172 z"
           id="path26817" />
        <path
           style="color:#000000;fill:#ff0000;-inkscape-stroke:none"
           d="m 137.07812,140.5625 c -2.16418,2.16382 -4.046,2.86444 -5.36132,3.08789 -1.31533,0.22345 -1.94141,-0.004 -1.94141,-0.004 l -0.80664,2.51954 c 0,0 1.35556,0.40562 3.19141,0.0937 1.83585,-0.31188 4.27412,-1.31361 6.78711,-3.82618 z"
           id="path26979" />
        <path
           style="color:#000000;fill:#008080;-inkscape-stroke:none"
           d="m 275.7793,127.32227 -2.64258,0.14257 c 0.18978,3.54854 1.33513,5.92377 2.49219,7.38282 1.15706,1.45904 2.43554,2.06445 2.43554,2.06445 l 1.08594,-2.41406 c 0,0 -0.62022,-0.24957 -1.44922,-1.29493 -0.82899,-1.04535 -1.75843,-2.82485 -1.92187,-5.88085 z"
           id="path26981" />
        <path
           style="color:#000000;fill:#00ff00;-inkscape-stroke:none"
           d="m 236.71875,61.574219 -2.64258,0.140625 c 0.18979,3.548533 1.33513,5.925717 2.49219,7.384765 1.15706,1.459048 2.43555,2.0625 2.43555,2.0625 L 240.08789,68.75 c 0,0 -0.61827,-0.249562 -1.44727,-1.294922 -0.82899,-1.045359 -1.75843,-2.824859 -1.92187,-5.880859 z"
           id="path26983" />
        <path
           style="color:#000000;fill:#ffff00;-inkscape-stroke:none"
           d="m 265.30078,205.46875 c -3.18106,1.58395 -4.90588,3.57726 -5.78516,5.21875 -0.87927,1.64149 -0.92578,3.05664 -0.92578,3.05664 l 2.64453,0.0371 c 0,0 -0.0167,-0.66768 0.61329,-1.84375 0.62997,-1.17607 1.89327,-2.73551 4.63281,-4.09961 z"
           id="path27147" />
        <path
           style="color:#000000;fill:#008080;-inkscape-stroke:none"
           d="m 142.56836,205.52148 -1.84766,1.89454 c 2.18991,2.13779 2.91492,4.00974 3.1543,5.32226 0.23938,1.31252 0.0176,1.94141 0.0176,1.94141 l 2.53125,0.77539 c 0,0 0.38879,-1.35947 0.0547,-3.19141 -0.33411,-1.83193 -1.36731,-4.25984 -3.91016,-6.74219 z"
           id="path27149" />
        <path
           style="color:#000000;fill:#ffff00;-inkscape-stroke:none"
           d="m 256.05664,158.00195 c -3.18107,1.58396 -4.90783,3.57727 -5.78711,5.21875 -0.87928,1.64149 -0.92578,3.05664 -0.92578,3.05664 l 2.64648,0.0371 c 0,0 -0.0186,-0.66767 0.61133,-1.84375 0.62998,-1.17607 1.89523,-2.7355 4.63477,-4.09961 z"
           id="use36272" />
        <path
           style="color:#000000;fill:#ff0000;-inkscape-stroke:none"
           d="m 270.76758,180.58008 c -2.16419,2.16382 -4.046,2.86639 -5.36133,3.08984 -1.31533,0.22345 -1.94141,-0.006 -1.94141,-0.006 l -0.80664,2.52149 c 0,0 1.35556,0.40367 3.19141,0.0918 1.83585,-0.31187 4.27607,-1.3136 6.78906,-3.82617 z"
           id="use37184" />
        <path
           style="color:#000000;fill:#ff0000;-inkscape-stroke:none"
           d="m 235.13086,40.175781 c -2.16419,2.163822 -4.04405,2.866396 -5.35938,3.089844 -1.31532,0.223448 -1.94335,-0.0039 -1.94336,-0.0039 l -0.80468,2.519531 c 0,0 1.35555,0.405624 3.1914,0.09375 1.83585,-0.311874 4.27413,-1.315562 6.78711,-3.828125 z"
           id="use37186" />
        <path
           style="color:#000000;fill:#ff0000;-inkscape-stroke:none"
           d="m 114.61328,77.580078 c -2.16419,2.163822 -4.046,2.864443 -5.36133,3.087891 -1.31532,0.223448 -1.9414,-0.0039 -1.9414,-0.0039 l -0.80664,2.519532 c 0,0 1.35555,0.405624 3.1914,0.09375 1.83585,-0.311874 4.27608,-1.313609 6.78907,-3.826172 z"
           id="use37188" />
        <path
           style="color:#000000;fill:#00ff00;-inkscape-stroke:none"
           d="m 117.94531,176.83594 -2.64258,0.14062 c 0.18979,3.54854 1.33513,5.92572 2.49219,7.38477 1.15706,1.45905 2.43555,2.0625 2.43555,2.0625 l 1.08398,-2.41211 c 0,0 -0.61827,-0.24956 -1.44726,-1.29492 -0.829,-1.04536 -1.75843,-2.82486 -1.92188,-5.88086 z"
           id="use37874" />
        <path
           style="color:#000000;fill:#00ff00;-inkscape-stroke:none"
           d="m 287.15039,149.03516 -2.64062,0.14062 c 0.18978,3.54853 1.33317,5.92377 2.49023,7.38281 1.15706,1.45905 2.43555,2.06446 2.43555,2.06446 l 1.08593,-2.41407 c 0,0 -0.61827,-0.2476 -1.44726,-1.29296 -0.829,-1.04536 -1.76039,-2.82486 -1.92383,-5.88086 z"
           id="use37876" />
        <path
           style="color:#000000;fill:#00ff00;-inkscape-stroke:none"
           d="m 201.94922,207.48633 -2.64258,0.14062 c 0.18979,3.54854 1.33513,5.92377 2.49219,7.38282 1.15706,1.45904 2.43554,2.06445 2.43554,2.06445 l 1.08399,-2.41406 c 0,0 -0.61827,-0.24761 -1.44727,-1.29297 -0.82899,-1.04536 -1.75843,-2.82486 -1.92187,-5.88086 z"
           id="use38028" />
      </g>
    </g>
  </g>
  <g
     id="layer2" />
</svg>
